M48
;GenerationSoftware,Autodesk,EAGLE,9.6.2*%
;CreationDate,2021-10-08T21:57:29Z*%
FMAT,2
ICI,OFF
METRIC,TZ,000.000
T7C0.813
T6C0.914
T5C1.016
T4C1.118
T3C1.194
T2C1.200
T1C1.240
%
G90
M71
T1
X42000Y34000
X42000Y31460
X42000Y36540
X52460Y61000
X55000Y61000
X57540Y61000
T2
X61770Y33560
X84470Y33590
X56770Y33560
X66770Y33560
X79470Y33590
X74470Y33590
T3
X84380Y80930
X84380Y75930
X30000Y22710
X83720Y53550
X83720Y48550
X84220Y67630
X84220Y62630
X20000Y22710
X25000Y22710
T4
X38260Y50280
X74470Y87880
X48420Y50280
X26880Y29970
X26880Y40130
X21330Y87880
X11170Y87880
X84630Y87880
T5
X49330Y84100
X61390Y84100
X63930Y84100
X66470Y84100
X17210Y78230
X22290Y78230
X22290Y73150
X17210Y73150
X25980Y51020
X46790Y84100
X25980Y56100
X44250Y84100
T6
X76540Y43000
X74000Y43000
X71460Y43000
X10000Y73460
X10000Y78540
X10000Y76000
T7
X36960Y53130
X75960Y80230
X75960Y64610
X75960Y67150
X54960Y75530
X30990Y72958
X30990Y69402
X30990Y84528
X30990Y80972
X23040Y30010
X23040Y40170
X36960Y63290
X29860Y63420
X32400Y63420
X13000Y29270
X13000Y26730
X13000Y36222
X13000Y39778
X54960Y78070
X75960Y77690
M30