M48
;GenerationSoftware,Autodesk,EAGLE,9.6.2*%
;CreationDate,2021-11-02T21:10:29Z*%
FMAT,2
ICI,OFF
METRIC,TZ,000.000
T8C0.813
T7C0.914
T6C1.016
T5C1.118
T4C1.194
T3C1.200
T2C1.240
T1C3.000
%
G90
M71
T1
X5000Y75000
X5000Y5000
X95000Y75000
X95000Y5000
T2
X50120Y52180
X47580Y52180
X45040Y52180
X40990Y20320
X40990Y17780
X40990Y15240
T3
X57120Y14970
X85900Y14970
X80900Y14970
X75900Y14970
X67120Y14970
X62120Y14970
T4
X93030Y43840
X93030Y48840
X93030Y58270
X93030Y63270
X93030Y30140
X93030Y35140
X21130Y6870
X26130Y6870
X16130Y6870
T5
X51170Y35710
X41010Y35710
X23940Y17320
X23940Y27480
X22320Y71200
X76020Y70200
X86180Y70200
X12160Y71200
T6
X25400Y37910
X25400Y42990
X44610Y72390
X47150Y72390
X14590Y57500
X19670Y57500
X66740Y72390
X14590Y62580
X19670Y62580
X49690Y72390
X64200Y72390
X69280Y72390
T7
X8160Y62580
X68470Y25400
X73550Y25400
X8160Y57500
X71010Y25400
X8160Y60040
T8
X29830Y70612
X29830Y74168
X27940Y51880
X8430Y24178
X8430Y20622
X8430Y15510
X35830Y45530
X35830Y35370
X17860Y17320
X84870Y45070
X84870Y47610
X60310Y63500
X60310Y60960
X29830Y58452
X29830Y62008
X8430Y12970
X84870Y58500
X84870Y61040
X30480Y51880
X17860Y27480
M30