G04 EAGLE Gerber RS-274X export*
G75*
%MOMM*%
%FSLAX34Y34*%
%LPD*%
%INBottom Copper*%
%IPPOS*%
%AMOC8*
5,1,8,0,0,1.08239X$1,22.5*%
G01*
%ADD10C,1.524000*%
%ADD11P,1.649562X8X22.500000*%
%ADD12P,1.732040X8X292.500000*%
%ADD13C,1.600200*%
%ADD14P,1.429621X8X292.500000*%
%ADD15C,2.540000*%
%ADD16P,2.749271X8X112.500000*%
%ADD17C,1.676400*%
%ADD18C,1.524000*%
%ADD19P,1.429621X8X202.500000*%
%ADD20P,1.429621X8X112.500000*%
%ADD21C,2.184400*%
%ADD22C,1.790700*%
%ADD23R,1.860000X1.860000*%
%ADD24C,1.860000*%
%ADD25C,1.422400*%
%ADD26C,0.508000*%
%ADD27C,0.406400*%


D10*
X172100Y782300D03*
D11*
X222900Y782300D03*
X222900Y731500D03*
X172100Y731500D03*
D12*
X309900Y809720D03*
D13*
X309900Y845280D03*
D12*
X309900Y694020D03*
D13*
X309900Y729580D03*
D14*
X549600Y780700D03*
X549600Y755300D03*
D15*
X259800Y510200D03*
D16*
X259800Y561000D03*
D14*
X759600Y671500D03*
X759600Y646100D03*
X759600Y802300D03*
X759600Y776900D03*
D17*
X382600Y502800D03*
X484200Y502800D03*
X268800Y299700D03*
X268800Y401300D03*
X213300Y878800D03*
X111700Y878800D03*
X846300Y878800D03*
X744700Y878800D03*
D18*
X442500Y848620D02*
X442500Y833380D01*
X467900Y833380D02*
X467900Y848620D01*
X493300Y848620D02*
X493300Y833380D01*
X613900Y833380D02*
X613900Y848620D01*
X639300Y848620D02*
X639300Y833380D01*
X664700Y833380D02*
X664700Y848620D01*
D19*
X324000Y634200D03*
X298600Y634200D03*
D14*
X369600Y632900D03*
X369600Y531300D03*
D20*
X230400Y300100D03*
X230400Y401700D03*
D21*
X567700Y335600D03*
X617700Y335600D03*
X667700Y335600D03*
X744700Y335900D03*
X794700Y335900D03*
X844700Y335900D03*
D22*
X851154Y626300D02*
X833247Y626300D01*
X833247Y676300D02*
X851154Y676300D01*
X846154Y485500D02*
X828247Y485500D01*
X828247Y535500D02*
X846154Y535500D01*
X852754Y759300D02*
X834847Y759300D01*
X834847Y809300D02*
X852754Y809300D01*
D23*
X420000Y314600D03*
D24*
X420000Y340000D03*
X420000Y365400D03*
D23*
X524600Y610000D03*
D24*
X550000Y610000D03*
X575400Y610000D03*
D25*
X765400Y437112D02*
X765400Y422888D01*
X740000Y422888D02*
X740000Y437112D01*
X714600Y437112D02*
X714600Y422888D01*
X107112Y734600D02*
X92888Y734600D01*
X92888Y760000D02*
X107112Y760000D01*
X107112Y785400D02*
X92888Y785400D01*
D14*
X130000Y292700D03*
X130000Y267300D03*
D12*
X130000Y362220D03*
D13*
X130000Y397780D03*
D22*
X200000Y236054D02*
X200000Y218147D01*
X250000Y218147D02*
X250000Y236054D01*
X300000Y236054D02*
X300000Y218147D01*
D26*
X310000Y809620D02*
X309900Y809720D01*
X310000Y809620D02*
X310000Y756900D01*
X310000Y746900D01*
X309900Y756800D02*
X309900Y729580D01*
X309900Y756800D02*
X310000Y756900D01*
X549600Y755300D02*
X633400Y671500D01*
X759600Y671500D01*
X842200Y626300D02*
X844250Y624250D01*
X687700Y560000D02*
X687700Y370000D01*
X800000Y535500D02*
X837200Y535500D01*
X760600Y370000D02*
X794700Y335900D01*
X760600Y370000D02*
X714600Y370000D01*
X687700Y370000D01*
X794700Y335900D02*
X844700Y335900D01*
X186900Y760000D02*
X100000Y760000D01*
X186900Y760000D02*
X198450Y748450D01*
X200000Y746900D01*
D27*
X198450Y748450D02*
X288450Y748450D01*
X296900Y756900D02*
X310000Y756900D01*
X296900Y756900D02*
X288450Y748450D01*
D26*
X309900Y756800D02*
X323200Y756800D01*
X330000Y750000D01*
X639300Y776900D02*
X639300Y841000D01*
X467900Y841000D02*
X467900Y750000D01*
X330000Y750000D01*
X549600Y750000D02*
X549600Y755300D01*
X549600Y750000D02*
X467900Y750000D01*
X760700Y759300D02*
X843800Y759300D01*
X759600Y760400D02*
X759600Y776900D01*
X759600Y760400D02*
X760700Y759300D01*
X759600Y776900D02*
X639300Y776900D01*
X524600Y610000D02*
X467900Y666700D01*
X467900Y750000D01*
X842200Y626300D02*
X883700Y626300D01*
X890000Y620000D01*
X890000Y450000D01*
X880000Y440000D01*
X810000Y440000D02*
X800000Y450000D01*
X800000Y535500D01*
X810000Y440000D02*
X880000Y440000D01*
X761100Y670000D02*
X759600Y671500D01*
X761100Y670000D02*
X770000Y670000D01*
X828500Y640000D02*
X842200Y626300D01*
X800000Y640000D02*
X770000Y670000D01*
X800000Y640000D02*
X828500Y640000D01*
X843800Y759300D02*
X880700Y759300D01*
X890000Y750000D01*
X890000Y630000D01*
X886300Y626300D01*
X883700Y626300D01*
X790000Y560000D02*
X687700Y560000D01*
X790000Y560000D02*
X800000Y550000D01*
X800000Y535500D01*
X130000Y267300D02*
X112700Y267300D01*
X100000Y280000D01*
X100000Y362220D01*
X250000Y260000D02*
X250000Y227100D01*
X250000Y260000D02*
X240000Y270000D01*
X132700Y270000D01*
X130000Y267300D01*
X714600Y370000D02*
X714600Y430000D01*
X667700Y370000D02*
X667700Y335600D01*
X667700Y370000D02*
X687700Y370000D01*
X130000Y362220D02*
X100000Y362220D01*
X100000Y360000D02*
X40000Y360000D01*
X40000Y860000D02*
X50000Y870000D01*
X70000Y870000D01*
X90000Y890000D01*
X90000Y900000D01*
X100000Y910000D01*
X862231Y890000D02*
X880000Y890000D01*
X890000Y880000D01*
X890000Y768600D02*
X880700Y759300D01*
X40000Y860000D02*
X40000Y360000D01*
X100000Y910000D02*
X842231Y910000D01*
X862231Y890000D01*
X890000Y880000D02*
X890000Y768600D01*
X222900Y782300D02*
X222900Y802300D01*
X215200Y810000D01*
X110000Y810000D01*
X100000Y800000D02*
X100000Y785400D01*
X100000Y800000D02*
X110000Y810000D01*
X110000Y700000D02*
X160000Y700000D01*
X172100Y712100D02*
X172100Y731500D01*
X172100Y712100D02*
X160000Y700000D01*
X110000Y700000D02*
X100000Y710000D01*
X100000Y734600D01*
X172100Y782300D02*
X187700Y782300D01*
X210000Y760000D01*
X240000Y760000D01*
X280000Y800000D01*
X280000Y845280D01*
X309900Y845280D02*
X309900Y841000D01*
X484200Y505800D02*
X484200Y502800D01*
X280000Y845280D02*
X75280Y845280D01*
X60000Y830000D01*
D27*
X60000Y510200D02*
X259800Y510200D01*
X60000Y510200D02*
X60000Y830000D01*
X369600Y531300D02*
X369600Y530000D01*
X349600Y530000D02*
X349600Y529600D01*
X330000Y510000D01*
X260000Y510000D01*
X259800Y510200D01*
D26*
X309900Y845280D02*
X438220Y845280D01*
X442500Y841000D01*
X470000Y530000D02*
X369600Y530000D01*
X349600Y530000D01*
X484200Y515800D02*
X484200Y502800D01*
X484200Y515800D02*
X470000Y530000D01*
X111700Y860000D02*
X111700Y878800D01*
X309900Y860000D02*
X309900Y845280D01*
X309900Y860000D02*
X111700Y860000D01*
X420000Y365400D02*
X475400Y365400D01*
X484200Y374200D02*
X484200Y502800D01*
X484200Y374200D02*
X475400Y365400D01*
X309900Y845280D02*
X280000Y845280D01*
X309900Y690100D02*
X309900Y690000D01*
X309900Y690100D02*
X309900Y694020D01*
X222900Y707100D02*
X222900Y731500D01*
X222900Y707100D02*
X240000Y690000D01*
X309800Y690000D01*
X309900Y690100D01*
D27*
X222900Y731500D02*
X222900Y577900D01*
X239800Y561000D02*
X259800Y561000D01*
X239800Y561000D02*
X222900Y577900D01*
X259800Y634200D02*
X298600Y634200D01*
X259800Y634200D02*
X259800Y561000D01*
D26*
X400000Y590000D02*
X410000Y580000D01*
X400000Y670000D02*
X380000Y690000D01*
X309900Y690000D01*
X400000Y670000D02*
X400000Y590000D01*
X540000Y580000D02*
X550000Y590000D01*
X550000Y610000D01*
X540000Y580000D02*
X410000Y580000D01*
X710000Y610000D02*
X720000Y620000D01*
X720000Y645700D01*
X759600Y646100D02*
X760000Y645700D01*
X710000Y610000D02*
X575400Y610000D01*
X837200Y485500D02*
X865500Y485500D01*
X870000Y490000D01*
X870000Y560000D01*
X850000Y580000D01*
X790000Y580000D01*
X760000Y610000D01*
X760000Y645700D02*
X720000Y645700D01*
X760000Y645700D02*
X760000Y610000D01*
X549600Y780700D02*
X549300Y781000D01*
X609999Y840995D02*
X613900Y841000D01*
X609999Y840995D02*
X609895Y840995D01*
X743500Y880000D02*
X744700Y878800D01*
X743500Y880000D02*
X630000Y880000D01*
X613900Y863900D01*
X613900Y841000D01*
X493300Y870000D02*
X380000Y870000D01*
X493300Y870000D02*
X493300Y841000D01*
X493300Y786700D01*
X500000Y780000D01*
X548900Y780000D01*
X549600Y780700D01*
X560700Y780700D01*
X580000Y800000D01*
X580000Y830000D01*
X591000Y841000D01*
X613900Y841000D01*
X803700Y676300D02*
X842200Y676300D01*
X609999Y750001D02*
X609999Y840995D01*
X740000Y740000D02*
X803700Y676300D01*
X740000Y740000D02*
X620000Y740000D01*
X609999Y750001D01*
X371200Y878800D02*
X213300Y878800D01*
X371200Y878800D02*
X380000Y870000D01*
X759600Y821000D02*
X759600Y802300D01*
X846300Y858800D02*
X846300Y878800D01*
X846300Y858800D02*
X837500Y850000D01*
X843800Y809300D02*
X790700Y809300D01*
X779000Y821000D02*
X759600Y821000D01*
X779000Y821000D02*
X790700Y809300D01*
X664700Y821000D02*
X664700Y841000D01*
X664700Y821000D02*
X759600Y821000D01*
X759600Y839600D01*
X770000Y850000D02*
X837500Y850000D01*
X770000Y850000D02*
X759600Y839600D01*
X744700Y335900D02*
X718800Y310000D01*
X630000Y310000D01*
X617700Y322300D01*
X617700Y335600D01*
X268400Y300100D02*
X230400Y300100D01*
X268400Y300100D02*
X268800Y299700D01*
X137400Y300100D02*
X130000Y292700D01*
X137400Y300100D02*
X230400Y300100D01*
X420000Y314600D02*
X546700Y314600D01*
X567700Y335600D01*
X270000Y298500D02*
X268800Y299700D01*
X270000Y210000D02*
X280000Y200000D01*
X330000Y200000D01*
X340000Y210000D01*
X340000Y220000D01*
X360000Y240000D01*
X420000Y260000D02*
X420000Y314600D01*
X270000Y298500D02*
X270000Y210000D01*
X360000Y240000D02*
X400000Y240000D01*
X420000Y260000D01*
X820000Y370000D02*
X880000Y370000D01*
X890000Y360000D01*
X890000Y310000D01*
X870000Y290000D01*
X600000Y290000D01*
X590000Y300000D01*
X590000Y370000D01*
X578800Y381200D01*
X387200Y502800D02*
X382600Y502800D01*
X371300Y401300D02*
X268800Y401300D01*
X382600Y412600D02*
X382600Y502800D01*
X382600Y412600D02*
X371300Y401300D01*
X420000Y340000D02*
X300000Y340000D01*
X280000Y340000D01*
X268800Y351200D02*
X268800Y401300D01*
X268800Y351200D02*
X280000Y340000D01*
X268400Y401700D02*
X230400Y401700D01*
X268400Y401700D02*
X268800Y401300D01*
X133920Y401700D02*
X130000Y397780D01*
X133920Y401700D02*
X230400Y401700D01*
X300000Y340000D02*
X300000Y227100D01*
X740000Y410000D02*
X750000Y400000D01*
X740000Y410000D02*
X740000Y430000D01*
X790000Y400000D02*
X820000Y370000D01*
X790000Y400000D02*
X750000Y400000D01*
X510000Y340000D02*
X420000Y340000D01*
X510000Y340000D02*
X520000Y350000D01*
X520000Y370000D01*
X531200Y381200D01*
X578800Y381200D01*
D27*
X369600Y632900D02*
X325300Y632900D01*
X324000Y634200D01*
D26*
X200000Y227100D02*
X237100Y190000D01*
X780000Y190000D02*
X800000Y210000D01*
X800000Y250000D01*
X810000Y260000D01*
X886538Y260000D02*
X906538Y280000D01*
X906538Y383462D01*
X790000Y430000D02*
X765400Y430000D01*
X780000Y190000D02*
X237100Y190000D01*
X810000Y260000D02*
X886538Y260000D01*
X906538Y383462D02*
X890000Y400000D01*
X820000Y400000D01*
X790000Y430000D01*
M02*
