G04 EAGLE Gerber RS-274X export*
G75*
%MOMM*%
%FSLAX34Y34*%
%LPD*%
%INBottom Copper*%
%IPPOS*%
%AMOC8*
5,1,8,0,0,1.08239X$1,22.5*%
G01*
%ADD10C,2.108200*%
%ADD11C,2.540000*%
%ADD12P,2.749271X8X112.500000*%
%ADD13P,1.869504X8X292.500000*%
%ADD14C,1.727200*%
%ADD15P,1.869504X8X112.500000*%
%ADD16C,2.032000*%
%ADD17C,1.828800*%
%ADD18P,1.869504X8X202.500000*%
%ADD19R,2.154400X2.154400*%
%ADD20C,2.154400*%
%ADD21C,1.930400*%
%ADD22C,2.184400*%
%ADD23C,1.930400*%
%ADD24P,2.089446X8X22.500000*%
%ADD25C,0.609600*%
%ADD26C,0.812800*%
%ADD27C,1.270000*%

G36*
X916271Y10936D02*
X916271Y10936D01*
X916355Y10941D01*
X916391Y10956D01*
X916430Y10962D01*
X916505Y11002D01*
X916583Y11034D01*
X916613Y11059D01*
X916647Y11078D01*
X916706Y11139D01*
X916770Y11194D01*
X916790Y11228D01*
X916817Y11256D01*
X916852Y11333D01*
X916896Y11405D01*
X916904Y11443D01*
X916920Y11479D01*
X916930Y11563D01*
X916948Y11646D01*
X916943Y11685D01*
X916947Y11723D01*
X916930Y11806D01*
X916920Y11890D01*
X916904Y11926D01*
X916895Y11964D01*
X916852Y12037D01*
X916816Y12113D01*
X916783Y12152D01*
X916769Y12175D01*
X916746Y12194D01*
X916707Y12240D01*
X910599Y17945D01*
X903412Y29764D01*
X899680Y43084D01*
X899680Y54492D01*
X899668Y54563D01*
X899666Y54634D01*
X899648Y54683D01*
X899640Y54735D01*
X899606Y54798D01*
X899582Y54865D01*
X899549Y54906D01*
X899525Y54952D01*
X899473Y55001D01*
X899428Y55057D01*
X899384Y55086D01*
X899346Y55122D01*
X899281Y55152D01*
X899221Y55190D01*
X899170Y55203D01*
X899123Y55225D01*
X899052Y55233D01*
X898982Y55251D01*
X898931Y55246D01*
X898879Y55252D01*
X898809Y55237D01*
X898737Y55231D01*
X898689Y55211D01*
X898638Y55200D01*
X898577Y55163D01*
X898511Y55135D01*
X898455Y55090D01*
X898427Y55074D01*
X898412Y55056D01*
X898380Y55030D01*
X864104Y20754D01*
X859353Y16003D01*
X853284Y13489D01*
X166716Y13489D01*
X160647Y16003D01*
X147303Y29347D01*
X144789Y35416D01*
X144789Y45078D01*
X144775Y45168D01*
X144767Y45259D01*
X144755Y45289D01*
X144750Y45320D01*
X144707Y45401D01*
X144671Y45485D01*
X144645Y45517D01*
X144634Y45538D01*
X144611Y45560D01*
X144566Y45616D01*
X143750Y46432D01*
X140598Y54041D01*
X140598Y83359D01*
X143750Y90968D01*
X149573Y96791D01*
X157182Y99943D01*
X165418Y99943D01*
X173027Y96791D01*
X178850Y90968D01*
X182002Y83359D01*
X182002Y54041D01*
X179319Y47563D01*
X179308Y47519D01*
X179289Y47477D01*
X179280Y47400D01*
X179262Y47324D01*
X179267Y47278D01*
X179262Y47233D01*
X179278Y47156D01*
X179285Y47079D01*
X179304Y47037D01*
X179314Y46992D01*
X179354Y46925D01*
X179385Y46854D01*
X179417Y46820D01*
X179440Y46781D01*
X179499Y46730D01*
X179552Y46673D01*
X179592Y46651D01*
X179627Y46621D01*
X179699Y46592D01*
X179767Y46555D01*
X179813Y46546D01*
X179855Y46529D01*
X179991Y46514D01*
X180009Y46511D01*
X180014Y46512D01*
X180022Y46511D01*
X208230Y46511D01*
X208234Y46511D01*
X208238Y46511D01*
X208355Y46531D01*
X208472Y46550D01*
X208476Y46552D01*
X208480Y46553D01*
X208584Y46610D01*
X208690Y46666D01*
X208693Y46668D01*
X208696Y46670D01*
X208777Y46758D01*
X208859Y46844D01*
X208861Y46848D01*
X208864Y46850D01*
X208913Y46959D01*
X208963Y47067D01*
X208963Y47071D01*
X208965Y47075D01*
X208977Y47192D01*
X208990Y47311D01*
X208989Y47315D01*
X208989Y47319D01*
X208963Y47435D01*
X208938Y47552D01*
X208936Y47555D01*
X208935Y47559D01*
X208873Y47660D01*
X208811Y47763D01*
X208808Y47765D01*
X208806Y47769D01*
X208715Y47845D01*
X208625Y47923D01*
X208621Y47924D01*
X208618Y47927D01*
X208465Y47996D01*
X207253Y48390D01*
X205775Y49143D01*
X204433Y50118D01*
X203259Y51292D01*
X202284Y52634D01*
X201531Y54112D01*
X201018Y55691D01*
X200758Y57329D01*
X200758Y67177D01*
X210538Y67177D01*
X210558Y67180D01*
X210577Y67178D01*
X210679Y67200D01*
X210781Y67217D01*
X210798Y67226D01*
X210818Y67230D01*
X210907Y67283D01*
X210998Y67332D01*
X211012Y67346D01*
X211029Y67356D01*
X211096Y67435D01*
X211167Y67510D01*
X211176Y67528D01*
X211189Y67543D01*
X211227Y67639D01*
X211271Y67733D01*
X211273Y67753D01*
X211281Y67771D01*
X211299Y67938D01*
X211299Y68701D01*
X211301Y68701D01*
X211301Y67938D01*
X211304Y67918D01*
X211302Y67899D01*
X211324Y67797D01*
X211341Y67695D01*
X211350Y67678D01*
X211354Y67658D01*
X211407Y67569D01*
X211456Y67478D01*
X211470Y67464D01*
X211480Y67447D01*
X211559Y67380D01*
X211634Y67309D01*
X211652Y67300D01*
X211667Y67287D01*
X211763Y67248D01*
X211857Y67205D01*
X211877Y67203D01*
X211895Y67195D01*
X212062Y67177D01*
X221842Y67177D01*
X221842Y57329D01*
X221582Y55691D01*
X221069Y54112D01*
X220316Y52634D01*
X219341Y51292D01*
X218167Y50118D01*
X216825Y49143D01*
X215347Y48390D01*
X214135Y47996D01*
X214132Y47994D01*
X214128Y47993D01*
X214023Y47938D01*
X213917Y47883D01*
X213914Y47880D01*
X213910Y47878D01*
X213828Y47792D01*
X213745Y47707D01*
X213744Y47703D01*
X213741Y47700D01*
X213691Y47592D01*
X213639Y47485D01*
X213639Y47481D01*
X213637Y47477D01*
X213624Y47360D01*
X213610Y47240D01*
X213611Y47236D01*
X213610Y47233D01*
X213635Y47117D01*
X213660Y47000D01*
X213662Y46996D01*
X213662Y46992D01*
X213723Y46890D01*
X213784Y46787D01*
X213787Y46784D01*
X213789Y46781D01*
X213879Y46703D01*
X213969Y46625D01*
X213972Y46624D01*
X213975Y46621D01*
X214087Y46576D01*
X214196Y46531D01*
X214200Y46531D01*
X214204Y46529D01*
X214370Y46511D01*
X242578Y46511D01*
X242623Y46518D01*
X242669Y46516D01*
X242744Y46538D01*
X242821Y46550D01*
X242861Y46572D01*
X242906Y46585D01*
X242970Y46629D01*
X243038Y46666D01*
X243070Y46699D01*
X243108Y46725D01*
X243154Y46788D01*
X243208Y46844D01*
X243227Y46886D01*
X243254Y46922D01*
X243279Y46996D01*
X243311Y47067D01*
X243316Y47113D01*
X243331Y47156D01*
X243330Y47234D01*
X243338Y47311D01*
X243329Y47356D01*
X243328Y47402D01*
X243290Y47534D01*
X243286Y47552D01*
X243284Y47556D01*
X243282Y47563D01*
X240598Y54041D01*
X240598Y83359D01*
X243750Y90968D01*
X249573Y96791D01*
X257182Y99943D01*
X265418Y99943D01*
X273027Y96791D01*
X278850Y90968D01*
X282002Y83359D01*
X282002Y71663D01*
X282016Y71573D01*
X282024Y71482D01*
X282036Y71453D01*
X282041Y71421D01*
X282084Y71340D01*
X282120Y71256D01*
X282146Y71224D01*
X282157Y71203D01*
X282180Y71181D01*
X282225Y71125D01*
X282916Y70434D01*
X282990Y70381D01*
X283059Y70321D01*
X283090Y70309D01*
X283116Y70290D01*
X283203Y70263D01*
X283288Y70229D01*
X283329Y70225D01*
X283351Y70218D01*
X283383Y70219D01*
X283454Y70211D01*
X826546Y70211D01*
X826636Y70225D01*
X826727Y70233D01*
X826756Y70245D01*
X826788Y70250D01*
X826869Y70293D01*
X826953Y70329D01*
X826985Y70355D01*
X827006Y70366D01*
X827028Y70389D01*
X827084Y70434D01*
X873266Y116616D01*
X873319Y116690D01*
X873379Y116759D01*
X873391Y116790D01*
X873410Y116816D01*
X873437Y116903D01*
X873471Y116988D01*
X873475Y117029D01*
X873482Y117051D01*
X873481Y117083D01*
X873489Y117154D01*
X873489Y212728D01*
X873486Y212748D01*
X873488Y212767D01*
X873466Y212869D01*
X873450Y212971D01*
X873440Y212988D01*
X873436Y213008D01*
X873383Y213097D01*
X873334Y213188D01*
X873320Y213202D01*
X873310Y213219D01*
X873231Y213286D01*
X873156Y213358D01*
X873138Y213366D01*
X873123Y213379D01*
X873027Y213418D01*
X872933Y213461D01*
X872913Y213463D01*
X872895Y213471D01*
X872728Y213489D01*
X797154Y213489D01*
X797064Y213475D01*
X796973Y213467D01*
X796944Y213455D01*
X796912Y213450D01*
X796831Y213407D01*
X796747Y213371D01*
X796715Y213345D01*
X796694Y213334D01*
X796672Y213311D01*
X796616Y213266D01*
X779353Y196003D01*
X773284Y193489D01*
X726716Y193489D01*
X720647Y196003D01*
X696103Y220547D01*
X693589Y226616D01*
X693589Y234119D01*
X693579Y234184D01*
X693578Y234250D01*
X693555Y234330D01*
X693550Y234362D01*
X693540Y234379D01*
X693531Y234411D01*
X692109Y237844D01*
X692085Y237883D01*
X692069Y237926D01*
X692021Y237987D01*
X691980Y238053D01*
X691944Y238082D01*
X691915Y238118D01*
X691850Y238160D01*
X691790Y238210D01*
X691747Y238226D01*
X691709Y238251D01*
X691633Y238270D01*
X691560Y238298D01*
X691515Y238300D01*
X691470Y238311D01*
X691393Y238305D01*
X691315Y238308D01*
X691271Y238296D01*
X691225Y238292D01*
X691153Y238262D01*
X691078Y238240D01*
X691041Y238214D01*
X690999Y238196D01*
X690892Y238110D01*
X690876Y238100D01*
X690873Y238096D01*
X690868Y238091D01*
X690529Y237753D01*
X689032Y236752D01*
X687367Y236063D01*
X686223Y235835D01*
X686223Y253238D01*
X686220Y253258D01*
X686222Y253277D01*
X686200Y253379D01*
X686183Y253481D01*
X686174Y253498D01*
X686170Y253518D01*
X686117Y253607D01*
X686068Y253698D01*
X686054Y253712D01*
X686044Y253729D01*
X685965Y253796D01*
X685890Y253867D01*
X685872Y253876D01*
X685857Y253889D01*
X685761Y253927D01*
X685667Y253971D01*
X685647Y253973D01*
X685629Y253981D01*
X685462Y253999D01*
X684699Y253999D01*
X684699Y254001D01*
X685462Y254001D01*
X685482Y254004D01*
X685501Y254002D01*
X685603Y254024D01*
X685705Y254041D01*
X685722Y254050D01*
X685742Y254054D01*
X685831Y254107D01*
X685922Y254156D01*
X685936Y254170D01*
X685953Y254180D01*
X686020Y254259D01*
X686091Y254334D01*
X686100Y254352D01*
X686113Y254367D01*
X686152Y254463D01*
X686195Y254557D01*
X686197Y254577D01*
X686205Y254595D01*
X686223Y254762D01*
X686223Y272165D01*
X687367Y271937D01*
X689032Y271248D01*
X690529Y270247D01*
X690868Y269909D01*
X690905Y269882D01*
X690936Y269848D01*
X691004Y269811D01*
X691067Y269765D01*
X691111Y269752D01*
X691151Y269730D01*
X691228Y269716D01*
X691302Y269693D01*
X691348Y269694D01*
X691393Y269686D01*
X691470Y269697D01*
X691548Y269699D01*
X691591Y269715D01*
X691637Y269722D01*
X691706Y269757D01*
X691779Y269784D01*
X691815Y269813D01*
X691856Y269833D01*
X691911Y269889D01*
X691971Y269938D01*
X691996Y269976D01*
X692028Y270009D01*
X692094Y270129D01*
X692104Y270145D01*
X692106Y270149D01*
X692109Y270156D01*
X693531Y273589D01*
X693546Y273653D01*
X693571Y273714D01*
X693580Y273797D01*
X693587Y273829D01*
X693586Y273848D01*
X693589Y273881D01*
X693589Y282746D01*
X693575Y282836D01*
X693567Y282927D01*
X693555Y282956D01*
X693550Y282988D01*
X693507Y283069D01*
X693471Y283153D01*
X693445Y283185D01*
X693434Y283206D01*
X693411Y283228D01*
X693366Y283284D01*
X672184Y304466D01*
X672110Y304519D01*
X672041Y304579D01*
X672010Y304591D01*
X671984Y304610D01*
X671897Y304637D01*
X671812Y304671D01*
X671771Y304675D01*
X671749Y304682D01*
X671717Y304681D01*
X671646Y304689D01*
X467272Y304689D01*
X467252Y304686D01*
X467233Y304688D01*
X467131Y304666D01*
X467029Y304650D01*
X467012Y304640D01*
X466992Y304636D01*
X466903Y304583D01*
X466812Y304534D01*
X466798Y304520D01*
X466781Y304510D01*
X466714Y304431D01*
X466642Y304356D01*
X466634Y304338D01*
X466621Y304323D01*
X466582Y304227D01*
X466539Y304133D01*
X466537Y304113D01*
X466529Y304095D01*
X466511Y303928D01*
X466511Y186716D01*
X463997Y180647D01*
X451904Y168554D01*
X450860Y167510D01*
X450818Y167452D01*
X450769Y167400D01*
X450747Y167353D01*
X450716Y167311D01*
X450695Y167242D01*
X450665Y167177D01*
X450659Y167125D01*
X450644Y167075D01*
X450646Y167004D01*
X450638Y166933D01*
X450649Y166882D01*
X450650Y166830D01*
X450675Y166762D01*
X450690Y166692D01*
X450717Y166647D01*
X450735Y166599D01*
X450780Y166543D01*
X450816Y166481D01*
X450856Y166447D01*
X450889Y166407D01*
X450949Y166368D01*
X451003Y166321D01*
X451052Y166302D01*
X451095Y166274D01*
X451165Y166256D01*
X451232Y166229D01*
X451303Y166221D01*
X451334Y166213D01*
X451357Y166215D01*
X451398Y166211D01*
X557580Y166211D01*
X557670Y166225D01*
X557761Y166233D01*
X557791Y166245D01*
X557823Y166250D01*
X557903Y166293D01*
X557987Y166329D01*
X558019Y166355D01*
X558040Y166366D01*
X558046Y166372D01*
X558047Y166373D01*
X558064Y166390D01*
X558118Y166434D01*
X559258Y167573D01*
X567006Y170783D01*
X575394Y170783D01*
X583142Y167573D01*
X589073Y161642D01*
X592283Y153894D01*
X592283Y145506D01*
X589073Y137758D01*
X583142Y131827D01*
X575394Y128617D01*
X567006Y128617D01*
X559258Y131827D01*
X558118Y132966D01*
X558044Y133019D01*
X557975Y133079D01*
X557945Y133091D01*
X557918Y133110D01*
X557831Y133137D01*
X557747Y133171D01*
X557706Y133175D01*
X557683Y133182D01*
X557651Y133181D01*
X557580Y133189D01*
X426918Y133189D01*
X426828Y133175D01*
X426737Y133167D01*
X426707Y133155D01*
X426675Y133150D01*
X426595Y133107D01*
X426511Y133071D01*
X426478Y133045D01*
X426458Y133034D01*
X426446Y133022D01*
X422693Y131467D01*
X397107Y131467D01*
X393372Y133014D01*
X390720Y135666D01*
X390646Y135719D01*
X390577Y135779D01*
X390547Y135791D01*
X390520Y135810D01*
X390434Y135837D01*
X390349Y135871D01*
X390308Y135875D01*
X390285Y135882D01*
X390253Y135881D01*
X390182Y135889D01*
X244316Y135889D01*
X238247Y138403D01*
X225403Y151247D01*
X223343Y156219D01*
X223282Y156319D01*
X223222Y156419D01*
X223217Y156423D01*
X223214Y156428D01*
X223124Y156503D01*
X223035Y156579D01*
X223029Y156581D01*
X223024Y156585D01*
X222916Y156627D01*
X222807Y156671D01*
X222799Y156672D01*
X222795Y156673D01*
X222776Y156674D01*
X222640Y156689D01*
X188987Y156689D01*
X188897Y156675D01*
X188806Y156667D01*
X188776Y156655D01*
X188744Y156650D01*
X188664Y156607D01*
X188580Y156571D01*
X188548Y156545D01*
X188527Y156534D01*
X188505Y156511D01*
X188449Y156466D01*
X186386Y154403D01*
X172668Y154403D01*
X172578Y154389D01*
X172487Y154381D01*
X172457Y154369D01*
X172426Y154364D01*
X172345Y154321D01*
X172261Y154285D01*
X172229Y154259D01*
X172208Y154248D01*
X172186Y154225D01*
X172130Y154180D01*
X133653Y115703D01*
X127584Y113189D01*
X94687Y113189D01*
X94597Y113175D01*
X94506Y113167D01*
X94476Y113155D01*
X94444Y113150D01*
X94364Y113107D01*
X94280Y113071D01*
X94248Y113045D01*
X94227Y113034D01*
X94205Y113011D01*
X94149Y112966D01*
X92086Y110903D01*
X76514Y110903D01*
X65503Y121914D01*
X65503Y137486D01*
X76514Y148497D01*
X76851Y148497D01*
X76922Y148508D01*
X76994Y148510D01*
X77043Y148528D01*
X77094Y148536D01*
X77157Y148570D01*
X77225Y148595D01*
X77265Y148627D01*
X77311Y148652D01*
X77361Y148704D01*
X77417Y148748D01*
X77445Y148792D01*
X77481Y148830D01*
X77511Y148895D01*
X77550Y148955D01*
X77562Y149006D01*
X77584Y149053D01*
X77592Y149124D01*
X77610Y149194D01*
X77606Y149246D01*
X77612Y149297D01*
X77596Y149368D01*
X77591Y149439D01*
X77570Y149487D01*
X77559Y149538D01*
X77522Y149599D01*
X77494Y149665D01*
X77450Y149721D01*
X77433Y149749D01*
X77415Y149764D01*
X77390Y149796D01*
X75663Y151523D01*
X75663Y153577D01*
X83538Y153577D01*
X83558Y153580D01*
X83577Y153578D01*
X83679Y153600D01*
X83781Y153617D01*
X83798Y153626D01*
X83818Y153630D01*
X83907Y153683D01*
X83998Y153732D01*
X84012Y153746D01*
X84029Y153756D01*
X84096Y153835D01*
X84167Y153910D01*
X84176Y153928D01*
X84189Y153943D01*
X84227Y154039D01*
X84271Y154133D01*
X84273Y154153D01*
X84281Y154171D01*
X84299Y154338D01*
X84299Y155101D01*
X84301Y155101D01*
X84301Y154338D01*
X84304Y154318D01*
X84302Y154299D01*
X84324Y154197D01*
X84341Y154095D01*
X84350Y154078D01*
X84354Y154058D01*
X84407Y153969D01*
X84456Y153878D01*
X84470Y153864D01*
X84480Y153847D01*
X84559Y153780D01*
X84634Y153709D01*
X84652Y153700D01*
X84667Y153687D01*
X84763Y153648D01*
X84857Y153605D01*
X84877Y153603D01*
X84895Y153595D01*
X85062Y153577D01*
X92937Y153577D01*
X92937Y151523D01*
X91210Y149796D01*
X91169Y149738D01*
X91119Y149686D01*
X91097Y149639D01*
X91067Y149597D01*
X91046Y149528D01*
X91016Y149463D01*
X91010Y149411D01*
X90995Y149361D01*
X90996Y149290D01*
X90988Y149219D01*
X91000Y149168D01*
X91001Y149116D01*
X91026Y149048D01*
X91041Y148978D01*
X91067Y148933D01*
X91085Y148885D01*
X91130Y148829D01*
X91167Y148767D01*
X91206Y148733D01*
X91239Y148693D01*
X91299Y148654D01*
X91354Y148607D01*
X91402Y148588D01*
X91446Y148560D01*
X91515Y148542D01*
X91582Y148515D01*
X91653Y148507D01*
X91684Y148499D01*
X91708Y148501D01*
X91749Y148497D01*
X92086Y148497D01*
X94149Y146434D01*
X94223Y146381D01*
X94292Y146321D01*
X94322Y146309D01*
X94349Y146290D01*
X94436Y146263D01*
X94520Y146229D01*
X94561Y146225D01*
X94584Y146218D01*
X94616Y146219D01*
X94687Y146211D01*
X117146Y146211D01*
X117236Y146225D01*
X117327Y146233D01*
X117356Y146245D01*
X117388Y146250D01*
X117469Y146293D01*
X117553Y146329D01*
X117585Y146355D01*
X117606Y146366D01*
X117628Y146389D01*
X117684Y146434D01*
X158447Y187197D01*
X164516Y189711D01*
X168213Y189711D01*
X168303Y189725D01*
X168394Y189733D01*
X168424Y189745D01*
X168456Y189750D01*
X168536Y189793D01*
X168620Y189829D01*
X168652Y189855D01*
X168673Y189866D01*
X168695Y189889D01*
X168751Y189934D01*
X170814Y191997D01*
X186386Y191997D01*
X188449Y189934D01*
X188523Y189881D01*
X188592Y189821D01*
X188622Y189809D01*
X188649Y189790D01*
X188736Y189763D01*
X188820Y189729D01*
X188861Y189725D01*
X188884Y189718D01*
X188916Y189719D01*
X188987Y189711D01*
X226858Y189711D01*
X226948Y189725D01*
X227039Y189733D01*
X227068Y189745D01*
X227100Y189750D01*
X227181Y189793D01*
X227265Y189829D01*
X227297Y189855D01*
X227318Y189866D01*
X227340Y189889D01*
X227396Y189934D01*
X227889Y190427D01*
X235358Y193521D01*
X243442Y193521D01*
X250911Y190427D01*
X256627Y184711D01*
X259721Y177242D01*
X259721Y169672D01*
X259724Y169652D01*
X259722Y169633D01*
X259744Y169531D01*
X259760Y169429D01*
X259770Y169412D01*
X259774Y169392D01*
X259827Y169303D01*
X259876Y169212D01*
X259890Y169198D01*
X259900Y169181D01*
X259979Y169114D01*
X260054Y169042D01*
X260072Y169034D01*
X260087Y169021D01*
X260183Y168982D01*
X260277Y168939D01*
X260297Y168937D01*
X260315Y168929D01*
X260482Y168911D01*
X325902Y168911D01*
X325972Y168922D01*
X326044Y168924D01*
X326093Y168942D01*
X326145Y168950D01*
X326208Y168984D01*
X326275Y169009D01*
X326316Y169041D01*
X326362Y169066D01*
X326411Y169118D01*
X326467Y169162D01*
X326495Y169206D01*
X326531Y169244D01*
X326561Y169309D01*
X326600Y169369D01*
X326613Y169420D01*
X326635Y169467D01*
X326643Y169538D01*
X326660Y169608D01*
X326656Y169660D01*
X326662Y169711D01*
X326647Y169782D01*
X326641Y169853D01*
X326621Y169901D01*
X326610Y169952D01*
X326573Y170013D01*
X326545Y170079D01*
X326500Y170135D01*
X326484Y170163D01*
X326466Y170178D01*
X326440Y170210D01*
X306003Y190647D01*
X303489Y196716D01*
X303489Y242846D01*
X303475Y242936D01*
X303467Y243027D01*
X303455Y243056D01*
X303450Y243088D01*
X303407Y243169D01*
X303371Y243253D01*
X303345Y243285D01*
X303334Y243306D01*
X303311Y243328D01*
X303266Y243384D01*
X288584Y258066D01*
X288510Y258119D01*
X288441Y258179D01*
X288410Y258191D01*
X288384Y258210D01*
X288297Y258237D01*
X288212Y258271D01*
X288171Y258275D01*
X288149Y258282D01*
X288117Y258281D01*
X288046Y258289D01*
X251942Y258289D01*
X251852Y258275D01*
X251761Y258267D01*
X251732Y258255D01*
X251700Y258250D01*
X251619Y258207D01*
X251535Y258171D01*
X251503Y258145D01*
X251482Y258134D01*
X251460Y258111D01*
X251404Y258066D01*
X250911Y257573D01*
X243442Y254479D01*
X235358Y254479D01*
X227889Y257573D01*
X227396Y258066D01*
X227322Y258120D01*
X227252Y258179D01*
X227222Y258191D01*
X227196Y258210D01*
X227109Y258237D01*
X227024Y258271D01*
X226983Y258275D01*
X226961Y258282D01*
X226929Y258281D01*
X226858Y258289D01*
X188987Y258289D01*
X188897Y258275D01*
X188806Y258267D01*
X188776Y258255D01*
X188744Y258250D01*
X188664Y258207D01*
X188580Y258171D01*
X188548Y258145D01*
X188527Y258134D01*
X188505Y258111D01*
X188449Y258066D01*
X186386Y256003D01*
X170814Y256003D01*
X168751Y258066D01*
X168677Y258119D01*
X168608Y258179D01*
X168578Y258191D01*
X168551Y258210D01*
X168464Y258237D01*
X168380Y258271D01*
X168339Y258275D01*
X168316Y258282D01*
X168284Y258281D01*
X168213Y258289D01*
X111954Y258289D01*
X111864Y258275D01*
X111773Y258267D01*
X111744Y258255D01*
X111712Y258250D01*
X111631Y258207D01*
X111547Y258171D01*
X111515Y258145D01*
X111494Y258134D01*
X111472Y258111D01*
X111416Y258066D01*
X106734Y253384D01*
X106681Y253310D01*
X106621Y253241D01*
X106609Y253210D01*
X106590Y253184D01*
X106563Y253097D01*
X106529Y253012D01*
X106525Y252971D01*
X106518Y252949D01*
X106519Y252917D01*
X106511Y252846D01*
X106511Y244196D01*
X103997Y238127D01*
X102628Y236758D01*
X102590Y236705D01*
X102544Y236658D01*
X102504Y236585D01*
X102485Y236559D01*
X102479Y236540D01*
X102463Y236512D01*
X100235Y231132D01*
X94948Y225845D01*
X88039Y222983D01*
X80561Y222983D01*
X73652Y225845D01*
X68365Y231132D01*
X65503Y238041D01*
X65503Y245519D01*
X68365Y252428D01*
X73266Y257329D01*
X73319Y257403D01*
X73379Y257472D01*
X73391Y257502D01*
X73410Y257529D01*
X73437Y257616D01*
X73471Y257700D01*
X73475Y257741D01*
X73482Y257764D01*
X73481Y257796D01*
X73489Y257867D01*
X73489Y263284D01*
X76003Y269353D01*
X95447Y288797D01*
X101516Y291311D01*
X168213Y291311D01*
X168303Y291325D01*
X168394Y291333D01*
X168424Y291345D01*
X168456Y291350D01*
X168536Y291393D01*
X168620Y291429D01*
X168652Y291455D01*
X168673Y291466D01*
X168695Y291489D01*
X168751Y291534D01*
X170814Y293597D01*
X186386Y293597D01*
X188449Y291534D01*
X188523Y291481D01*
X188592Y291421D01*
X188622Y291409D01*
X188649Y291390D01*
X188736Y291363D01*
X188820Y291329D01*
X188861Y291325D01*
X188884Y291318D01*
X188916Y291319D01*
X188987Y291311D01*
X226858Y291311D01*
X226948Y291325D01*
X227039Y291333D01*
X227068Y291345D01*
X227100Y291350D01*
X227181Y291393D01*
X227265Y291429D01*
X227297Y291455D01*
X227318Y291466D01*
X227340Y291489D01*
X227396Y291534D01*
X227889Y292027D01*
X235358Y295121D01*
X243442Y295121D01*
X250911Y292027D01*
X251404Y291534D01*
X251478Y291480D01*
X251548Y291421D01*
X251578Y291409D01*
X251604Y291390D01*
X251691Y291363D01*
X251776Y291329D01*
X251817Y291325D01*
X251839Y291318D01*
X251871Y291319D01*
X251942Y291311D01*
X298484Y291311D01*
X304553Y288797D01*
X333997Y259353D01*
X336511Y253284D01*
X336511Y207154D01*
X336525Y207064D01*
X336533Y206973D01*
X336545Y206944D01*
X336550Y206912D01*
X336593Y206831D01*
X336629Y206747D01*
X336655Y206715D01*
X336666Y206694D01*
X336689Y206672D01*
X336734Y206616D01*
X348816Y194534D01*
X348890Y194481D01*
X348959Y194421D01*
X348990Y194409D01*
X349016Y194390D01*
X349103Y194363D01*
X349188Y194329D01*
X349229Y194325D01*
X349251Y194318D01*
X349283Y194319D01*
X349354Y194311D01*
X389785Y194311D01*
X389831Y194318D01*
X389877Y194316D01*
X389951Y194338D01*
X390028Y194350D01*
X390069Y194372D01*
X390113Y194385D01*
X390177Y194429D01*
X390245Y194466D01*
X390277Y194499D01*
X390315Y194525D01*
X390361Y194588D01*
X390415Y194644D01*
X390434Y194686D01*
X390462Y194722D01*
X390486Y194796D01*
X390518Y194867D01*
X390524Y194913D01*
X390538Y194956D01*
X390537Y195034D01*
X390546Y195111D01*
X390536Y195156D01*
X390535Y195202D01*
X390497Y195334D01*
X390493Y195352D01*
X390491Y195356D01*
X390489Y195363D01*
X388967Y199036D01*
X388967Y200468D01*
X388960Y200513D01*
X388959Y200517D01*
X388953Y200558D01*
X388945Y200649D01*
X388933Y200678D01*
X388928Y200710D01*
X388910Y200744D01*
X388908Y200754D01*
X388883Y200795D01*
X388849Y200875D01*
X388823Y200907D01*
X388812Y200928D01*
X388792Y200947D01*
X388782Y200965D01*
X388768Y200977D01*
X388744Y201006D01*
X344303Y245447D01*
X341789Y251516D01*
X341789Y336428D01*
X341786Y336448D01*
X341788Y336467D01*
X341766Y336569D01*
X341750Y336671D01*
X341740Y336688D01*
X341736Y336708D01*
X341683Y336797D01*
X341634Y336888D01*
X341620Y336902D01*
X341610Y336919D01*
X341531Y336986D01*
X341456Y337058D01*
X341438Y337066D01*
X341423Y337079D01*
X341327Y337118D01*
X341233Y337161D01*
X341213Y337163D01*
X341195Y337171D01*
X341028Y337189D01*
X276116Y337189D01*
X270047Y339703D01*
X265296Y344454D01*
X265296Y344455D01*
X253734Y356016D01*
X253660Y356069D01*
X253591Y356129D01*
X253560Y356141D01*
X253534Y356160D01*
X253447Y356187D01*
X253362Y356221D01*
X253322Y356225D01*
X253299Y356232D01*
X253267Y356231D01*
X253196Y356239D01*
X249453Y356239D01*
X241050Y359720D01*
X238404Y362366D01*
X238330Y362419D01*
X238260Y362479D01*
X238230Y362491D01*
X238204Y362510D01*
X238117Y362537D01*
X238032Y362571D01*
X237991Y362575D01*
X237969Y362582D01*
X237937Y362581D01*
X237865Y362589D01*
X57616Y362589D01*
X51547Y365103D01*
X26003Y390647D01*
X23489Y396716D01*
X23489Y653284D01*
X26003Y659353D01*
X45896Y679245D01*
X45896Y679246D01*
X50647Y683997D01*
X56716Y686511D01*
X82846Y686511D01*
X82936Y686525D01*
X83027Y686533D01*
X83056Y686545D01*
X83088Y686550D01*
X83169Y686593D01*
X83253Y686629D01*
X83285Y686655D01*
X83306Y686666D01*
X83328Y686689D01*
X83384Y686734D01*
X101895Y705244D01*
X101962Y705338D01*
X102033Y705433D01*
X102035Y705439D01*
X102038Y705444D01*
X102072Y705555D01*
X102109Y705667D01*
X102109Y705673D01*
X102111Y705679D01*
X102108Y705796D01*
X102106Y705913D01*
X102104Y705920D01*
X102104Y705925D01*
X102098Y705942D01*
X102060Y706074D01*
X101279Y707958D01*
X101279Y716042D01*
X103431Y721238D01*
X103446Y721301D01*
X103471Y721362D01*
X103480Y721445D01*
X103487Y721477D01*
X103486Y721496D01*
X103489Y721529D01*
X103489Y733284D01*
X106003Y739353D01*
X120647Y753997D01*
X126716Y756511D01*
X286233Y756511D01*
X286323Y756525D01*
X286414Y756533D01*
X286444Y756545D01*
X286476Y756550D01*
X286556Y756593D01*
X286640Y756629D01*
X286672Y756655D01*
X286693Y756666D01*
X286715Y756689D01*
X286771Y756734D01*
X287652Y757615D01*
X294561Y760477D01*
X302039Y760477D01*
X308948Y757615D01*
X309829Y756734D01*
X309903Y756681D01*
X309972Y756621D01*
X310002Y756609D01*
X310029Y756590D01*
X310116Y756563D01*
X310200Y756529D01*
X310241Y756525D01*
X310264Y756518D01*
X310296Y756519D01*
X310367Y756511D01*
X433284Y756511D01*
X439353Y753997D01*
X440262Y753088D01*
X440356Y753020D01*
X440451Y752950D01*
X440457Y752948D01*
X440462Y752944D01*
X440573Y752910D01*
X440685Y752874D01*
X440691Y752874D01*
X440697Y752872D01*
X440814Y752875D01*
X440931Y752876D01*
X440938Y752878D01*
X440943Y752878D01*
X440960Y752884D01*
X441092Y752923D01*
X442159Y753365D01*
X450041Y753365D01*
X457323Y750348D01*
X462896Y744775D01*
X464292Y741407D01*
X464349Y741314D01*
X464403Y741219D01*
X464414Y741210D01*
X464421Y741198D01*
X464505Y741128D01*
X464587Y741056D01*
X464600Y741050D01*
X464611Y741041D01*
X464712Y741002D01*
X464813Y740959D01*
X464827Y740958D01*
X464840Y740953D01*
X464949Y740948D01*
X465058Y740940D01*
X465072Y740943D01*
X465086Y740942D01*
X465191Y740973D01*
X465297Y740999D01*
X465312Y741008D01*
X465322Y741011D01*
X465346Y741028D01*
X465442Y741082D01*
X466441Y741808D01*
X467795Y742498D01*
X469240Y742967D01*
X469977Y743084D01*
X469977Y724662D01*
X469980Y724642D01*
X469978Y724623D01*
X470000Y724521D01*
X470017Y724419D01*
X470026Y724402D01*
X470030Y724382D01*
X470083Y724293D01*
X470132Y724202D01*
X470146Y724188D01*
X470156Y724171D01*
X470235Y724104D01*
X470310Y724033D01*
X470328Y724024D01*
X470343Y724011D01*
X470439Y723973D01*
X470533Y723929D01*
X470553Y723927D01*
X470571Y723919D01*
X470738Y723901D01*
X472262Y723901D01*
X472282Y723904D01*
X472301Y723902D01*
X472403Y723924D01*
X472505Y723941D01*
X472522Y723950D01*
X472542Y723954D01*
X472631Y724007D01*
X472722Y724056D01*
X472736Y724070D01*
X472753Y724080D01*
X472820Y724159D01*
X472891Y724234D01*
X472900Y724252D01*
X472913Y724267D01*
X472952Y724363D01*
X472995Y724457D01*
X472997Y724477D01*
X473005Y724495D01*
X473023Y724662D01*
X473023Y743084D01*
X473760Y742967D01*
X475205Y742498D01*
X476559Y741808D01*
X477558Y741082D01*
X477574Y741074D01*
X477576Y741072D01*
X477586Y741068D01*
X477655Y741033D01*
X477751Y740981D01*
X477765Y740978D01*
X477777Y740972D01*
X477885Y740956D01*
X477993Y740937D01*
X478007Y740939D01*
X478021Y740937D01*
X478128Y740957D01*
X478236Y740973D01*
X478249Y740979D01*
X478263Y740982D01*
X478358Y741035D01*
X478455Y741084D01*
X478465Y741094D01*
X478478Y741101D01*
X478551Y741182D01*
X478628Y741260D01*
X478636Y741275D01*
X478643Y741283D01*
X478655Y741310D01*
X478708Y741407D01*
X480104Y744775D01*
X485677Y750348D01*
X492959Y753365D01*
X500841Y753365D01*
X508123Y750348D01*
X513696Y744775D01*
X515310Y740881D01*
X515371Y740781D01*
X515431Y740681D01*
X515436Y740677D01*
X515439Y740672D01*
X515529Y740597D01*
X515618Y740521D01*
X515624Y740519D01*
X515629Y740515D01*
X515737Y740473D01*
X515846Y740429D01*
X515854Y740428D01*
X515858Y740427D01*
X515877Y740426D01*
X516013Y740411D01*
X622887Y740411D01*
X623002Y740430D01*
X623118Y740447D01*
X623124Y740449D01*
X623130Y740450D01*
X623233Y740505D01*
X623337Y740558D01*
X623342Y740563D01*
X623347Y740566D01*
X623427Y740650D01*
X623510Y740734D01*
X623513Y740740D01*
X623517Y740744D01*
X623524Y740761D01*
X623590Y740881D01*
X625204Y744775D01*
X630777Y750348D01*
X638059Y753365D01*
X645941Y753365D01*
X653223Y750348D01*
X658796Y744775D01*
X660192Y741407D01*
X660249Y741314D01*
X660303Y741219D01*
X660314Y741210D01*
X660321Y741198D01*
X660405Y741128D01*
X660487Y741056D01*
X660500Y741050D01*
X660511Y741041D01*
X660612Y741002D01*
X660713Y740959D01*
X660727Y740958D01*
X660740Y740953D01*
X660849Y740948D01*
X660958Y740940D01*
X660972Y740943D01*
X660986Y740942D01*
X661091Y740973D01*
X661197Y740999D01*
X661212Y741008D01*
X661222Y741011D01*
X661246Y741028D01*
X661342Y741082D01*
X662341Y741808D01*
X663695Y742498D01*
X665140Y742967D01*
X665877Y743084D01*
X665877Y724662D01*
X665880Y724642D01*
X665878Y724623D01*
X665900Y724521D01*
X665917Y724419D01*
X665926Y724402D01*
X665930Y724382D01*
X665983Y724293D01*
X666032Y724202D01*
X666046Y724188D01*
X666056Y724171D01*
X666135Y724104D01*
X666210Y724033D01*
X666228Y724024D01*
X666243Y724011D01*
X666339Y723973D01*
X666433Y723929D01*
X666453Y723927D01*
X666471Y723919D01*
X666638Y723901D01*
X668162Y723901D01*
X668182Y723904D01*
X668201Y723902D01*
X668303Y723924D01*
X668405Y723941D01*
X668422Y723950D01*
X668442Y723954D01*
X668531Y724007D01*
X668622Y724056D01*
X668636Y724070D01*
X668653Y724080D01*
X668720Y724159D01*
X668791Y724234D01*
X668800Y724252D01*
X668813Y724267D01*
X668852Y724363D01*
X668895Y724457D01*
X668897Y724477D01*
X668905Y724495D01*
X668923Y724662D01*
X668923Y743084D01*
X669660Y742967D01*
X671105Y742498D01*
X672459Y741808D01*
X673458Y741082D01*
X673474Y741074D01*
X673476Y741072D01*
X673486Y741068D01*
X673555Y741033D01*
X673651Y740981D01*
X673665Y740978D01*
X673677Y740972D01*
X673785Y740956D01*
X673893Y740937D01*
X673907Y740939D01*
X673921Y740937D01*
X674028Y740957D01*
X674136Y740973D01*
X674149Y740979D01*
X674163Y740982D01*
X674258Y741035D01*
X674355Y741084D01*
X674365Y741094D01*
X674378Y741101D01*
X674451Y741182D01*
X674528Y741260D01*
X674536Y741275D01*
X674543Y741283D01*
X674555Y741310D01*
X674608Y741407D01*
X676004Y744775D01*
X681577Y750348D01*
X688859Y753365D01*
X696741Y753365D01*
X697808Y752923D01*
X697922Y752896D01*
X698035Y752867D01*
X698042Y752868D01*
X698048Y752866D01*
X698164Y752877D01*
X698281Y752887D01*
X698286Y752889D01*
X698293Y752890D01*
X698400Y752937D01*
X698507Y752983D01*
X698513Y752988D01*
X698517Y752990D01*
X698531Y753002D01*
X698638Y753088D01*
X699547Y753997D01*
X705616Y756511D01*
X848284Y756511D01*
X854353Y753997D01*
X875797Y732553D01*
X878311Y726484D01*
X878311Y719272D01*
X878314Y719252D01*
X878312Y719233D01*
X878334Y719131D01*
X878350Y719029D01*
X878360Y719012D01*
X878364Y718992D01*
X878417Y718903D01*
X878466Y718812D01*
X878480Y718798D01*
X878490Y718781D01*
X878569Y718714D01*
X878644Y718642D01*
X878662Y718634D01*
X878677Y718621D01*
X878773Y718582D01*
X878867Y718539D01*
X878887Y718537D01*
X878905Y718529D01*
X879072Y718511D01*
X891284Y718511D01*
X897353Y715997D01*
X944297Y669053D01*
X946811Y662984D01*
X946811Y653143D01*
X946830Y653029D01*
X946847Y652912D01*
X946849Y652907D01*
X946850Y652901D01*
X946905Y652798D01*
X946958Y652693D01*
X946963Y652689D01*
X946966Y652683D01*
X947050Y652603D01*
X947134Y652521D01*
X947140Y652517D01*
X947144Y652514D01*
X947161Y652506D01*
X947281Y652440D01*
X952568Y650250D01*
X958391Y644427D01*
X961543Y636818D01*
X961543Y628582D01*
X958391Y620973D01*
X952568Y615150D01*
X944959Y611998D01*
X915641Y611998D01*
X908032Y615150D01*
X907216Y615966D01*
X907142Y616019D01*
X907073Y616079D01*
X907043Y616091D01*
X907016Y616110D01*
X906929Y616137D01*
X906844Y616171D01*
X906804Y616175D01*
X906781Y616182D01*
X906749Y616181D01*
X906678Y616189D01*
X878154Y616189D01*
X878064Y616175D01*
X877973Y616167D01*
X877944Y616155D01*
X877912Y616150D01*
X877831Y616107D01*
X877747Y616071D01*
X877715Y616045D01*
X877694Y616034D01*
X877672Y616011D01*
X877616Y615966D01*
X867720Y606070D01*
X867667Y605996D01*
X867607Y605927D01*
X867595Y605896D01*
X867576Y605870D01*
X867549Y605783D01*
X867515Y605698D01*
X867511Y605657D01*
X867504Y605635D01*
X867505Y605603D01*
X867497Y605532D01*
X867497Y602614D01*
X856486Y591603D01*
X856149Y591603D01*
X856078Y591592D01*
X856006Y591590D01*
X855957Y591572D01*
X855906Y591564D01*
X855843Y591530D01*
X855775Y591505D01*
X855735Y591473D01*
X855689Y591448D01*
X855639Y591396D01*
X855583Y591352D01*
X855555Y591308D01*
X855519Y591270D01*
X855489Y591205D01*
X855450Y591145D01*
X855438Y591094D01*
X855416Y591047D01*
X855408Y590976D01*
X855390Y590906D01*
X855394Y590854D01*
X855388Y590803D01*
X855404Y590732D01*
X855409Y590661D01*
X855430Y590613D01*
X855441Y590562D01*
X855478Y590501D01*
X855506Y590435D01*
X855550Y590379D01*
X855567Y590351D01*
X855585Y590336D01*
X855610Y590304D01*
X857337Y588577D01*
X857337Y586523D01*
X849462Y586523D01*
X849442Y586520D01*
X849423Y586522D01*
X849321Y586500D01*
X849219Y586483D01*
X849202Y586474D01*
X849182Y586470D01*
X849093Y586417D01*
X849002Y586368D01*
X848988Y586354D01*
X848971Y586344D01*
X848904Y586265D01*
X848833Y586190D01*
X848824Y586172D01*
X848811Y586157D01*
X848773Y586061D01*
X848729Y585967D01*
X848727Y585947D01*
X848719Y585929D01*
X848701Y585762D01*
X848701Y584999D01*
X848699Y584999D01*
X848699Y585762D01*
X848696Y585782D01*
X848698Y585801D01*
X848676Y585903D01*
X848659Y586005D01*
X848650Y586022D01*
X848646Y586042D01*
X848593Y586131D01*
X848544Y586222D01*
X848530Y586236D01*
X848520Y586253D01*
X848441Y586320D01*
X848366Y586391D01*
X848348Y586400D01*
X848333Y586413D01*
X848237Y586452D01*
X848143Y586495D01*
X848123Y586497D01*
X848105Y586505D01*
X847938Y586523D01*
X840063Y586523D01*
X840063Y588577D01*
X841790Y590304D01*
X841831Y590362D01*
X841881Y590414D01*
X841903Y590461D01*
X841933Y590503D01*
X841954Y590572D01*
X841984Y590637D01*
X841990Y590689D01*
X842005Y590739D01*
X842004Y590810D01*
X842012Y590881D01*
X842000Y590932D01*
X841999Y590984D01*
X841974Y591052D01*
X841959Y591122D01*
X841933Y591167D01*
X841915Y591215D01*
X841870Y591271D01*
X841833Y591333D01*
X841794Y591367D01*
X841761Y591407D01*
X841701Y591446D01*
X841646Y591493D01*
X841598Y591512D01*
X841554Y591540D01*
X841485Y591558D01*
X841418Y591585D01*
X841347Y591593D01*
X841316Y591601D01*
X841292Y591599D01*
X841251Y591603D01*
X840914Y591603D01*
X829903Y602614D01*
X829903Y618186D01*
X840914Y629197D01*
X843832Y629197D01*
X843922Y629211D01*
X844013Y629219D01*
X844042Y629231D01*
X844074Y629236D01*
X844155Y629279D01*
X844239Y629315D01*
X844271Y629341D01*
X844292Y629352D01*
X844314Y629375D01*
X844370Y629420D01*
X861647Y646697D01*
X867716Y649211D01*
X906678Y649211D01*
X906768Y649225D01*
X906859Y649233D01*
X906889Y649245D01*
X906921Y649250D01*
X907001Y649293D01*
X907085Y649329D01*
X907117Y649355D01*
X907138Y649366D01*
X907160Y649389D01*
X907216Y649434D01*
X908032Y650250D01*
X912897Y652265D01*
X912936Y652289D01*
X912979Y652305D01*
X913040Y652354D01*
X913106Y652395D01*
X913135Y652430D01*
X913171Y652459D01*
X913213Y652524D01*
X913263Y652584D01*
X913279Y652627D01*
X913304Y652666D01*
X913323Y652741D01*
X913351Y652814D01*
X913353Y652860D01*
X913364Y652904D01*
X913358Y652982D01*
X913361Y653059D01*
X913348Y653104D01*
X913345Y653149D01*
X913314Y653221D01*
X913293Y653296D01*
X913267Y653333D01*
X913249Y653376D01*
X913163Y653482D01*
X913152Y653498D01*
X913148Y653501D01*
X913144Y653507D01*
X881384Y685266D01*
X881310Y685319D01*
X881241Y685379D01*
X881210Y685391D01*
X881184Y685410D01*
X881097Y685437D01*
X881012Y685471D01*
X880971Y685475D01*
X880949Y685482D01*
X880917Y685481D01*
X880846Y685489D01*
X874342Y685489D01*
X874252Y685475D01*
X874161Y685467D01*
X874132Y685455D01*
X874100Y685450D01*
X874019Y685407D01*
X873935Y685371D01*
X873903Y685345D01*
X873882Y685334D01*
X873860Y685311D01*
X873804Y685266D01*
X873311Y684773D01*
X865842Y681679D01*
X857758Y681679D01*
X850289Y684773D01*
X844573Y690489D01*
X841479Y697958D01*
X841479Y706042D01*
X844573Y713511D01*
X845066Y714004D01*
X845120Y714078D01*
X845179Y714148D01*
X845191Y714178D01*
X845210Y714204D01*
X845237Y714291D01*
X845271Y714376D01*
X845275Y714417D01*
X845282Y714439D01*
X845281Y714471D01*
X845289Y714542D01*
X845289Y716046D01*
X845275Y716136D01*
X845267Y716227D01*
X845255Y716256D01*
X845250Y716288D01*
X845207Y716369D01*
X845171Y716453D01*
X845145Y716485D01*
X845134Y716506D01*
X845111Y716528D01*
X845066Y716584D01*
X838384Y723266D01*
X838310Y723319D01*
X838241Y723379D01*
X838210Y723391D01*
X838184Y723410D01*
X838097Y723437D01*
X838012Y723471D01*
X837971Y723475D01*
X837949Y723482D01*
X837917Y723481D01*
X837846Y723489D01*
X765248Y723489D01*
X765152Y723474D01*
X765055Y723464D01*
X765031Y723454D01*
X765005Y723450D01*
X764919Y723404D01*
X764830Y723364D01*
X764811Y723347D01*
X764788Y723334D01*
X764721Y723264D01*
X764649Y723198D01*
X764636Y723175D01*
X764618Y723156D01*
X764578Y723068D01*
X764531Y722982D01*
X764526Y722957D01*
X764515Y722933D01*
X764504Y722836D01*
X764487Y722740D01*
X764491Y722714D01*
X764488Y722689D01*
X764508Y722593D01*
X764523Y722497D01*
X764534Y722474D01*
X764540Y722448D01*
X764590Y722365D01*
X764634Y722278D01*
X764653Y722259D01*
X764666Y722237D01*
X764740Y722174D01*
X764810Y722106D01*
X764838Y722090D01*
X764853Y722077D01*
X764884Y722065D01*
X764957Y722025D01*
X771711Y719227D01*
X777427Y713511D01*
X780521Y706042D01*
X780521Y697958D01*
X777427Y690489D01*
X776934Y689996D01*
X776880Y689922D01*
X776821Y689852D01*
X776809Y689822D01*
X776790Y689796D01*
X776763Y689709D01*
X776729Y689624D01*
X776725Y689583D01*
X776718Y689561D01*
X776719Y689529D01*
X776711Y689458D01*
X776711Y576954D01*
X776725Y576864D01*
X776733Y576773D01*
X776745Y576744D01*
X776750Y576712D01*
X776793Y576631D01*
X776829Y576547D01*
X776855Y576515D01*
X776866Y576494D01*
X776889Y576472D01*
X776934Y576416D01*
X826616Y526734D01*
X826690Y526681D01*
X826759Y526621D01*
X826790Y526609D01*
X826816Y526590D01*
X826903Y526563D01*
X826988Y526529D01*
X827029Y526525D01*
X827051Y526518D01*
X827083Y526519D01*
X827154Y526511D01*
X911984Y526511D01*
X918053Y523997D01*
X932725Y509325D01*
X932799Y509272D01*
X932868Y509212D01*
X932899Y509200D01*
X932925Y509181D01*
X933012Y509154D01*
X933097Y509120D01*
X933138Y509116D01*
X933160Y509109D01*
X933192Y509110D01*
X933263Y509102D01*
X944959Y509102D01*
X952568Y505950D01*
X958391Y500127D01*
X961543Y492518D01*
X961543Y484282D01*
X958391Y476673D01*
X952568Y470850D01*
X944959Y467698D01*
X915641Y467698D01*
X908032Y470850D01*
X902209Y476673D01*
X899057Y484282D01*
X899057Y492557D01*
X899062Y492600D01*
X899080Y492676D01*
X899076Y492722D01*
X899081Y492767D01*
X899064Y492843D01*
X899057Y492921D01*
X899038Y492963D01*
X899028Y493008D01*
X898988Y493075D01*
X898957Y493146D01*
X898926Y493180D01*
X898902Y493219D01*
X898843Y493269D01*
X898790Y493327D01*
X898750Y493349D01*
X898715Y493379D01*
X898643Y493408D01*
X898575Y493445D01*
X898530Y493454D01*
X898487Y493471D01*
X898351Y493486D01*
X898333Y493489D01*
X898328Y493488D01*
X898320Y493489D01*
X816716Y493489D01*
X810647Y496003D01*
X746203Y560447D01*
X743689Y566516D01*
X743689Y663263D01*
X743682Y663309D01*
X743684Y663355D01*
X743662Y663429D01*
X743650Y663506D01*
X743628Y663547D01*
X743615Y663591D01*
X743571Y663655D01*
X743534Y663723D01*
X743501Y663755D01*
X743475Y663793D01*
X743413Y663839D01*
X743356Y663893D01*
X743314Y663912D01*
X743278Y663940D01*
X743204Y663964D01*
X743133Y663996D01*
X743087Y664002D01*
X743044Y664016D01*
X742966Y664015D01*
X742889Y664024D01*
X742844Y664014D01*
X742798Y664013D01*
X742666Y663975D01*
X742648Y663971D01*
X742644Y663969D01*
X742637Y663967D01*
X741484Y663489D01*
X659272Y663489D01*
X659252Y663486D01*
X659233Y663488D01*
X659131Y663466D01*
X659029Y663450D01*
X659012Y663440D01*
X658992Y663436D01*
X658903Y663383D01*
X658812Y663334D01*
X658798Y663320D01*
X658781Y663310D01*
X658714Y663231D01*
X658642Y663156D01*
X658634Y663138D01*
X658621Y663123D01*
X658582Y663027D01*
X658539Y662933D01*
X658537Y662913D01*
X658529Y662895D01*
X658511Y662728D01*
X658511Y618716D01*
X655997Y612647D01*
X639353Y596003D01*
X633284Y593489D01*
X613887Y593489D01*
X613797Y593475D01*
X613706Y593467D01*
X613676Y593455D01*
X613644Y593450D01*
X613564Y593407D01*
X613480Y593371D01*
X613448Y593345D01*
X613427Y593334D01*
X613405Y593311D01*
X613349Y593266D01*
X610886Y590803D01*
X595314Y590803D01*
X584303Y601814D01*
X584303Y617386D01*
X595314Y628397D01*
X595651Y628397D01*
X595722Y628408D01*
X595794Y628410D01*
X595843Y628428D01*
X595894Y628436D01*
X595957Y628470D01*
X596025Y628495D01*
X596065Y628527D01*
X596111Y628552D01*
X596161Y628604D01*
X596217Y628648D01*
X596245Y628692D01*
X596281Y628730D01*
X596311Y628795D01*
X596350Y628855D01*
X596362Y628906D01*
X596384Y628953D01*
X596392Y629024D01*
X596410Y629094D01*
X596406Y629146D01*
X596412Y629197D01*
X596396Y629268D01*
X596391Y629339D01*
X596370Y629387D01*
X596359Y629438D01*
X596322Y629499D01*
X596294Y629565D01*
X596250Y629621D01*
X596233Y629649D01*
X596215Y629664D01*
X596190Y629696D01*
X594463Y631423D01*
X594463Y633477D01*
X602338Y633477D01*
X602358Y633480D01*
X602377Y633478D01*
X602479Y633500D01*
X602581Y633517D01*
X602598Y633526D01*
X602618Y633530D01*
X602707Y633583D01*
X602798Y633632D01*
X602812Y633646D01*
X602829Y633656D01*
X602896Y633735D01*
X602967Y633810D01*
X602976Y633828D01*
X602989Y633843D01*
X603027Y633939D01*
X603071Y634033D01*
X603073Y634053D01*
X603081Y634071D01*
X603099Y634238D01*
X603099Y635001D01*
X603101Y635001D01*
X603101Y634238D01*
X603104Y634218D01*
X603102Y634199D01*
X603124Y634097D01*
X603141Y633995D01*
X603150Y633978D01*
X603154Y633958D01*
X603207Y633869D01*
X603256Y633778D01*
X603270Y633764D01*
X603280Y633747D01*
X603359Y633680D01*
X603434Y633609D01*
X603452Y633600D01*
X603467Y633587D01*
X603563Y633548D01*
X603657Y633505D01*
X603677Y633503D01*
X603695Y633495D01*
X603862Y633477D01*
X611737Y633477D01*
X611737Y631423D01*
X610010Y629696D01*
X609969Y629638D01*
X609919Y629586D01*
X609897Y629539D01*
X609867Y629497D01*
X609846Y629428D01*
X609816Y629363D01*
X609810Y629311D01*
X609795Y629261D01*
X609796Y629190D01*
X609788Y629119D01*
X609800Y629068D01*
X609801Y629016D01*
X609826Y628948D01*
X609841Y628878D01*
X609867Y628833D01*
X609885Y628785D01*
X609930Y628729D01*
X609967Y628667D01*
X610006Y628633D01*
X610039Y628593D01*
X610099Y628554D01*
X610154Y628507D01*
X610202Y628488D01*
X610246Y628460D01*
X610315Y628442D01*
X610382Y628415D01*
X610453Y628407D01*
X610484Y628399D01*
X610508Y628401D01*
X610549Y628397D01*
X610886Y628397D01*
X612549Y626734D01*
X612623Y626681D01*
X612692Y626621D01*
X612722Y626609D01*
X612749Y626590D01*
X612836Y626563D01*
X612920Y626529D01*
X612961Y626525D01*
X612984Y626518D01*
X613016Y626519D01*
X613087Y626511D01*
X622846Y626511D01*
X622936Y626525D01*
X623027Y626533D01*
X623056Y626545D01*
X623088Y626550D01*
X623169Y626593D01*
X623253Y626629D01*
X623285Y626655D01*
X623306Y626666D01*
X623328Y626689D01*
X623384Y626734D01*
X625266Y628616D01*
X625319Y628690D01*
X625379Y628759D01*
X625391Y628790D01*
X625410Y628816D01*
X625437Y628903D01*
X625471Y628988D01*
X625475Y629029D01*
X625482Y629051D01*
X625481Y629083D01*
X625489Y629154D01*
X625489Y702424D01*
X625475Y702514D01*
X625467Y702605D01*
X625455Y702635D01*
X625450Y702667D01*
X625407Y702747D01*
X625371Y702831D01*
X625345Y702863D01*
X625334Y702884D01*
X625311Y702906D01*
X625266Y702962D01*
X625204Y703025D01*
X623590Y706919D01*
X623529Y707019D01*
X623469Y707119D01*
X623464Y707123D01*
X623461Y707128D01*
X623371Y707203D01*
X623282Y707279D01*
X623276Y707281D01*
X623271Y707285D01*
X623163Y707327D01*
X623054Y707371D01*
X623046Y707372D01*
X623042Y707373D01*
X623023Y707374D01*
X622887Y707389D01*
X516013Y707389D01*
X515898Y707370D01*
X515782Y707353D01*
X515776Y707351D01*
X515770Y707350D01*
X515667Y707295D01*
X515563Y707242D01*
X515558Y707237D01*
X515553Y707234D01*
X515473Y707150D01*
X515390Y707066D01*
X515387Y707060D01*
X515383Y707056D01*
X515376Y707039D01*
X515310Y706919D01*
X513696Y703025D01*
X513634Y702962D01*
X513581Y702888D01*
X513521Y702819D01*
X513509Y702789D01*
X513490Y702762D01*
X513463Y702676D01*
X513429Y702591D01*
X513425Y702550D01*
X513418Y702527D01*
X513419Y702495D01*
X513411Y702424D01*
X513411Y683616D01*
X510897Y677547D01*
X489353Y656003D01*
X483284Y653489D01*
X261916Y653489D01*
X255847Y656003D01*
X251096Y660754D01*
X251096Y660755D01*
X220394Y691456D01*
X220320Y691509D01*
X220251Y691569D01*
X220220Y691581D01*
X220194Y691600D01*
X220107Y691627D01*
X220022Y691661D01*
X219981Y691665D01*
X219959Y691672D01*
X219927Y691671D01*
X219856Y691679D01*
X219158Y691679D01*
X211689Y694773D01*
X205973Y700489D01*
X202879Y707958D01*
X202879Y716042D01*
X205528Y722437D01*
X205537Y722473D01*
X205543Y722486D01*
X205543Y722492D01*
X205558Y722523D01*
X205566Y722600D01*
X205584Y722676D01*
X205580Y722722D01*
X205585Y722767D01*
X205568Y722844D01*
X205561Y722921D01*
X205542Y722963D01*
X205533Y723008D01*
X205493Y723075D01*
X205461Y723146D01*
X205430Y723180D01*
X205407Y723219D01*
X205347Y723270D01*
X205295Y723327D01*
X205254Y723349D01*
X205220Y723379D01*
X205147Y723408D01*
X205079Y723445D01*
X205034Y723454D01*
X204991Y723471D01*
X204856Y723486D01*
X204837Y723489D01*
X204832Y723488D01*
X204825Y723489D01*
X139975Y723489D01*
X139930Y723482D01*
X139884Y723484D01*
X139809Y723462D01*
X139733Y723450D01*
X139692Y723428D01*
X139648Y723415D01*
X139584Y723371D01*
X139515Y723334D01*
X139484Y723301D01*
X139446Y723275D01*
X139399Y723212D01*
X139346Y723156D01*
X139326Y723114D01*
X139299Y723078D01*
X139275Y723004D01*
X139242Y722933D01*
X139237Y722887D01*
X139223Y722844D01*
X139224Y722766D01*
X139215Y722689D01*
X139225Y722644D01*
X139225Y722598D01*
X139263Y722466D01*
X139267Y722448D01*
X139270Y722444D01*
X139272Y722437D01*
X141921Y716042D01*
X141921Y707958D01*
X138827Y700489D01*
X138334Y699996D01*
X138280Y699922D01*
X138221Y699852D01*
X138209Y699822D01*
X138190Y699796D01*
X138163Y699709D01*
X138129Y699624D01*
X138125Y699583D01*
X138118Y699561D01*
X138119Y699529D01*
X138111Y699458D01*
X138111Y657254D01*
X138125Y657164D01*
X138133Y657073D01*
X138145Y657044D01*
X138150Y657012D01*
X138193Y656931D01*
X138229Y656847D01*
X138255Y656815D01*
X138266Y656794D01*
X138289Y656772D01*
X138334Y656716D01*
X149214Y645836D01*
X149288Y645783D01*
X149357Y645723D01*
X149387Y645711D01*
X149414Y645692D01*
X149501Y645665D01*
X149586Y645631D01*
X149626Y645627D01*
X149649Y645620D01*
X149681Y645621D01*
X149752Y645613D01*
X149841Y645613D01*
X157123Y642596D01*
X162696Y637023D01*
X165713Y629741D01*
X165713Y622298D01*
X165716Y622279D01*
X165714Y622259D01*
X165736Y622158D01*
X165752Y622056D01*
X165762Y622038D01*
X165766Y622019D01*
X165819Y621930D01*
X165868Y621838D01*
X165882Y621825D01*
X165892Y621807D01*
X165971Y621740D01*
X166046Y621669D01*
X166064Y621661D01*
X166079Y621648D01*
X166175Y621609D01*
X166269Y621565D01*
X166289Y621563D01*
X166307Y621556D01*
X166474Y621537D01*
X171105Y621537D01*
X171195Y621552D01*
X171286Y621559D01*
X171316Y621572D01*
X171348Y621577D01*
X171428Y621620D01*
X171512Y621655D01*
X171544Y621681D01*
X171565Y621692D01*
X171587Y621715D01*
X171643Y621760D01*
X176664Y626781D01*
X176717Y626855D01*
X176777Y626925D01*
X176789Y626955D01*
X176808Y626981D01*
X176835Y627068D01*
X176869Y627153D01*
X176873Y627194D01*
X176880Y627216D01*
X176879Y627248D01*
X176887Y627319D01*
X176887Y634007D01*
X188493Y645613D01*
X204907Y645613D01*
X216513Y634007D01*
X216513Y617593D01*
X204907Y605987D01*
X196419Y605987D01*
X196329Y605973D01*
X196238Y605965D01*
X196209Y605953D01*
X196177Y605948D01*
X196096Y605905D01*
X196012Y605869D01*
X195980Y605843D01*
X195959Y605832D01*
X195937Y605809D01*
X195881Y605764D01*
X185370Y595253D01*
X180142Y593088D01*
X157670Y593088D01*
X157599Y593076D01*
X157527Y593074D01*
X157478Y593056D01*
X157427Y593048D01*
X157363Y593014D01*
X157296Y592990D01*
X157255Y592957D01*
X157209Y592933D01*
X157160Y592881D01*
X157104Y592836D01*
X157076Y592792D01*
X157040Y592754D01*
X157010Y592690D01*
X156971Y592629D01*
X156958Y592579D01*
X156936Y592531D01*
X156929Y592460D01*
X156911Y592391D01*
X156915Y592339D01*
X156909Y592287D01*
X156925Y592217D01*
X156930Y592145D01*
X156950Y592098D01*
X156962Y592047D01*
X156998Y591985D01*
X157026Y591919D01*
X157071Y591863D01*
X157088Y591835D01*
X157106Y591820D01*
X157131Y591788D01*
X165713Y583207D01*
X165713Y566793D01*
X154107Y555187D01*
X149752Y555187D01*
X149662Y555173D01*
X149571Y555165D01*
X149542Y555153D01*
X149510Y555148D01*
X149429Y555105D01*
X149345Y555069D01*
X149313Y555043D01*
X149292Y555032D01*
X149270Y555009D01*
X149214Y554964D01*
X145253Y551003D01*
X139184Y548489D01*
X88316Y548489D01*
X82247Y551003D01*
X77778Y555472D01*
X77704Y555525D01*
X77635Y555585D01*
X77604Y555597D01*
X77578Y555616D01*
X77491Y555643D01*
X77406Y555677D01*
X77365Y555681D01*
X77343Y555688D01*
X77311Y555687D01*
X77240Y555695D01*
X68616Y555695D01*
X61521Y558634D01*
X57810Y562345D01*
X57752Y562387D01*
X57700Y562436D01*
X57653Y562458D01*
X57611Y562488D01*
X57542Y562509D01*
X57477Y562540D01*
X57425Y562545D01*
X57375Y562561D01*
X57304Y562559D01*
X57233Y562567D01*
X57182Y562556D01*
X57130Y562554D01*
X57062Y562530D01*
X56992Y562514D01*
X56947Y562488D01*
X56899Y562470D01*
X56843Y562425D01*
X56781Y562388D01*
X56747Y562349D01*
X56707Y562316D01*
X56668Y562256D01*
X56621Y562201D01*
X56602Y562153D01*
X56574Y562109D01*
X56556Y562040D01*
X56529Y561973D01*
X56521Y561902D01*
X56513Y561871D01*
X56515Y561847D01*
X56511Y561806D01*
X56511Y407154D01*
X56525Y407064D01*
X56533Y406973D01*
X56545Y406944D01*
X56550Y406912D01*
X56593Y406831D01*
X56629Y406747D01*
X56655Y406715D01*
X56666Y406694D01*
X56689Y406672D01*
X56734Y406616D01*
X67516Y395834D01*
X67590Y395781D01*
X67659Y395721D01*
X67690Y395709D01*
X67716Y395690D01*
X67803Y395663D01*
X67888Y395629D01*
X67929Y395625D01*
X67951Y395618D01*
X67983Y395619D01*
X68054Y395611D01*
X237865Y395611D01*
X237956Y395625D01*
X238046Y395633D01*
X238076Y395645D01*
X238108Y395650D01*
X238189Y395693D01*
X238273Y395729D01*
X238305Y395755D01*
X238326Y395766D01*
X238348Y395789D01*
X238404Y395834D01*
X241050Y398480D01*
X249453Y401961D01*
X258547Y401961D01*
X266950Y398480D01*
X273380Y392050D01*
X276861Y383647D01*
X276861Y379904D01*
X276875Y379814D01*
X276883Y379723D01*
X276895Y379693D01*
X276900Y379662D01*
X276943Y379581D01*
X276979Y379497D01*
X277005Y379465D01*
X277016Y379444D01*
X277039Y379422D01*
X277084Y379366D01*
X286016Y370434D01*
X286090Y370381D01*
X286159Y370321D01*
X286190Y370309D01*
X286216Y370290D01*
X286303Y370263D01*
X286388Y370229D01*
X286429Y370225D01*
X286451Y370218D01*
X286483Y370219D01*
X286554Y370211D01*
X347913Y370211D01*
X348003Y370225D01*
X348094Y370233D01*
X348124Y370245D01*
X348156Y370250D01*
X348236Y370293D01*
X348320Y370329D01*
X348352Y370355D01*
X348373Y370366D01*
X348393Y370386D01*
X348395Y370388D01*
X348400Y370393D01*
X348451Y370434D01*
X350514Y372497D01*
X355575Y372497D01*
X355640Y372507D01*
X355705Y372508D01*
X355785Y372531D01*
X355818Y372536D01*
X355835Y372546D01*
X355866Y372555D01*
X358416Y373611D01*
X397558Y373611D01*
X397648Y373625D01*
X397739Y373633D01*
X397768Y373645D01*
X397800Y373650D01*
X397881Y373693D01*
X397965Y373729D01*
X397997Y373755D01*
X398018Y373766D01*
X398040Y373789D01*
X398096Y373834D01*
X398589Y374327D01*
X406058Y377421D01*
X414142Y377421D01*
X421611Y374327D01*
X427327Y368611D01*
X430421Y361142D01*
X430421Y353058D01*
X427327Y345589D01*
X421611Y339873D01*
X414142Y336779D01*
X406058Y336779D01*
X398589Y339873D01*
X398096Y340366D01*
X398022Y340419D01*
X397952Y340479D01*
X397922Y340491D01*
X397896Y340510D01*
X397809Y340537D01*
X397724Y340571D01*
X397683Y340575D01*
X397661Y340582D01*
X397629Y340581D01*
X397558Y340589D01*
X375572Y340589D01*
X375552Y340586D01*
X375533Y340588D01*
X375431Y340566D01*
X375329Y340550D01*
X375312Y340540D01*
X375292Y340536D01*
X375203Y340483D01*
X375112Y340434D01*
X375098Y340420D01*
X375081Y340410D01*
X375014Y340331D01*
X374942Y340256D01*
X374934Y340238D01*
X374921Y340223D01*
X374882Y340127D01*
X374839Y340033D01*
X374837Y340013D01*
X374829Y339995D01*
X374811Y339828D01*
X374811Y261954D01*
X374825Y261864D01*
X374833Y261773D01*
X374845Y261744D01*
X374850Y261712D01*
X374893Y261631D01*
X374929Y261547D01*
X374955Y261515D01*
X374966Y261494D01*
X374989Y261472D01*
X375034Y261416D01*
X412094Y224356D01*
X412168Y224303D01*
X412237Y224243D01*
X412268Y224231D01*
X412294Y224212D01*
X412381Y224185D01*
X412466Y224151D01*
X412507Y224147D01*
X412529Y224140D01*
X412561Y224141D01*
X412632Y224133D01*
X414064Y224133D01*
X421757Y220946D01*
X427646Y215057D01*
X430833Y207364D01*
X430833Y199036D01*
X429311Y195363D01*
X429301Y195319D01*
X429282Y195277D01*
X429273Y195200D01*
X429255Y195124D01*
X429259Y195078D01*
X429254Y195033D01*
X429271Y194956D01*
X429278Y194879D01*
X429297Y194837D01*
X429307Y194792D01*
X429347Y194725D01*
X429378Y194654D01*
X429409Y194620D01*
X429433Y194581D01*
X429492Y194530D01*
X429545Y194473D01*
X429585Y194451D01*
X429620Y194421D01*
X429692Y194392D01*
X429760Y194355D01*
X429805Y194346D01*
X429848Y194329D01*
X429984Y194314D01*
X430002Y194311D01*
X430007Y194312D01*
X430015Y194311D01*
X430646Y194311D01*
X430736Y194325D01*
X430827Y194333D01*
X430856Y194345D01*
X430888Y194350D01*
X430969Y194393D01*
X431053Y194429D01*
X431085Y194455D01*
X431106Y194466D01*
X431128Y194489D01*
X431184Y194534D01*
X433266Y196616D01*
X433319Y196690D01*
X433379Y196759D01*
X433391Y196790D01*
X433410Y196816D01*
X433437Y196903D01*
X433471Y196988D01*
X433475Y197029D01*
X433482Y197051D01*
X433481Y197083D01*
X433489Y197154D01*
X433489Y324484D01*
X436003Y330553D01*
X440647Y335197D01*
X446716Y337711D01*
X494428Y337711D01*
X494448Y337714D01*
X494467Y337712D01*
X494569Y337734D01*
X494671Y337750D01*
X494688Y337760D01*
X494708Y337764D01*
X494797Y337817D01*
X494888Y337866D01*
X494902Y337880D01*
X494919Y337890D01*
X494986Y337969D01*
X495058Y338044D01*
X495066Y338062D01*
X495079Y338077D01*
X495118Y338173D01*
X495161Y338267D01*
X495163Y338287D01*
X495171Y338305D01*
X495189Y338472D01*
X495189Y344558D01*
X495175Y344648D01*
X495167Y344739D01*
X495155Y344768D01*
X495150Y344800D01*
X495107Y344881D01*
X495071Y344965D01*
X495045Y344997D01*
X495034Y345018D01*
X495011Y345040D01*
X494966Y345096D01*
X494473Y345589D01*
X491379Y353058D01*
X491379Y361142D01*
X494473Y368611D01*
X500189Y374327D01*
X507658Y377421D01*
X515742Y377421D01*
X523211Y374327D01*
X528927Y368611D01*
X532021Y361142D01*
X532021Y353058D01*
X528927Y345589D01*
X528434Y345096D01*
X528381Y345022D01*
X528321Y344952D01*
X528309Y344922D01*
X528290Y344896D01*
X528263Y344809D01*
X528229Y344724D01*
X528225Y344683D01*
X528218Y344661D01*
X528219Y344629D01*
X528211Y344558D01*
X528211Y338472D01*
X528214Y338452D01*
X528212Y338433D01*
X528234Y338331D01*
X528250Y338229D01*
X528260Y338212D01*
X528264Y338192D01*
X528317Y338103D01*
X528366Y338012D01*
X528380Y337998D01*
X528390Y337981D01*
X528469Y337914D01*
X528544Y337842D01*
X528562Y337834D01*
X528577Y337821D01*
X528673Y337782D01*
X528767Y337739D01*
X528787Y337737D01*
X528805Y337729D01*
X528972Y337711D01*
X682084Y337711D01*
X688153Y335197D01*
X724097Y299253D01*
X726611Y293184D01*
X726611Y281497D01*
X726618Y281451D01*
X726616Y281405D01*
X726638Y281331D01*
X726650Y281254D01*
X726672Y281213D01*
X726685Y281169D01*
X726729Y281105D01*
X726766Y281036D01*
X726799Y281005D01*
X726825Y280967D01*
X726888Y280921D01*
X726944Y280867D01*
X726986Y280848D01*
X727022Y280820D01*
X727096Y280796D01*
X727167Y280763D01*
X727213Y280758D01*
X727256Y280744D01*
X727334Y280745D01*
X727411Y280736D01*
X727456Y280746D01*
X727502Y280746D01*
X727634Y280785D01*
X727652Y280789D01*
X727656Y280791D01*
X727663Y280793D01*
X731660Y282449D01*
X739340Y282449D01*
X746435Y279510D01*
X751866Y274079D01*
X753149Y270981D01*
X753211Y270881D01*
X753271Y270781D01*
X753276Y270777D01*
X753279Y270772D01*
X753369Y270697D01*
X753458Y270621D01*
X753463Y270619D01*
X753468Y270615D01*
X753577Y270573D01*
X753686Y270529D01*
X753693Y270528D01*
X753698Y270527D01*
X753716Y270526D01*
X753853Y270511D01*
X756846Y270511D01*
X756936Y270525D01*
X757027Y270533D01*
X757056Y270545D01*
X757088Y270550D01*
X757169Y270593D01*
X757253Y270629D01*
X757285Y270655D01*
X757306Y270666D01*
X757328Y270689D01*
X757384Y270734D01*
X770647Y283997D01*
X776716Y286511D01*
X868302Y286511D01*
X868372Y286522D01*
X868444Y286524D01*
X868493Y286542D01*
X868545Y286550D01*
X868608Y286584D01*
X868675Y286609D01*
X868716Y286641D01*
X868762Y286666D01*
X868811Y286718D01*
X868867Y286762D01*
X868895Y286806D01*
X868931Y286844D01*
X868961Y286909D01*
X869000Y286969D01*
X869013Y287020D01*
X869035Y287067D01*
X869043Y287138D01*
X869060Y287208D01*
X869056Y287260D01*
X869062Y287311D01*
X869047Y287382D01*
X869041Y287453D01*
X869021Y287501D01*
X869010Y287552D01*
X868973Y287613D01*
X868945Y287679D01*
X868900Y287735D01*
X868884Y287763D01*
X868866Y287778D01*
X868840Y287810D01*
X834703Y321947D01*
X832189Y328016D01*
X832189Y433428D01*
X832187Y433443D01*
X832188Y433456D01*
X832187Y433460D01*
X832188Y433467D01*
X832166Y433569D01*
X832150Y433671D01*
X832140Y433688D01*
X832136Y433708D01*
X832083Y433797D01*
X832034Y433888D01*
X832020Y433902D01*
X832010Y433919D01*
X831931Y433986D01*
X831856Y434058D01*
X831838Y434066D01*
X831823Y434079D01*
X831727Y434118D01*
X831633Y434161D01*
X831613Y434163D01*
X831595Y434171D01*
X831428Y434189D01*
X526016Y434189D01*
X519947Y436703D01*
X515196Y441454D01*
X515196Y441455D01*
X487203Y469447D01*
X484689Y475516D01*
X484689Y501685D01*
X484682Y501731D01*
X484684Y501777D01*
X484662Y501851D01*
X484650Y501928D01*
X484628Y501969D01*
X484615Y502013D01*
X484571Y502077D01*
X484534Y502145D01*
X484501Y502177D01*
X484475Y502215D01*
X484412Y502261D01*
X484356Y502315D01*
X484314Y502334D01*
X484278Y502362D01*
X484204Y502386D01*
X484133Y502418D01*
X484087Y502424D01*
X484044Y502438D01*
X483966Y502437D01*
X483889Y502446D01*
X483844Y502436D01*
X483798Y502435D01*
X483666Y502397D01*
X483648Y502393D01*
X483644Y502391D01*
X483637Y502389D01*
X479964Y500867D01*
X471636Y500867D01*
X463943Y504054D01*
X458054Y509943D01*
X457799Y510557D01*
X457738Y510657D01*
X457678Y510757D01*
X457673Y510761D01*
X457670Y510766D01*
X457579Y510841D01*
X457491Y510917D01*
X457485Y510919D01*
X457480Y510923D01*
X457372Y510965D01*
X457263Y511009D01*
X457255Y511010D01*
X457251Y511011D01*
X457232Y511012D01*
X457096Y511027D01*
X451923Y511027D01*
X451923Y521038D01*
X451920Y521058D01*
X451922Y521077D01*
X451900Y521179D01*
X451883Y521281D01*
X451874Y521298D01*
X451870Y521318D01*
X451817Y521407D01*
X451768Y521498D01*
X451754Y521512D01*
X451744Y521529D01*
X451665Y521596D01*
X451590Y521667D01*
X451572Y521676D01*
X451557Y521689D01*
X451461Y521727D01*
X451367Y521771D01*
X451347Y521773D01*
X451329Y521781D01*
X451162Y521799D01*
X450399Y521799D01*
X450399Y521801D01*
X451162Y521801D01*
X451182Y521804D01*
X451201Y521802D01*
X451303Y521824D01*
X451405Y521841D01*
X451422Y521850D01*
X451442Y521854D01*
X451531Y521907D01*
X451622Y521956D01*
X451636Y521970D01*
X451653Y521980D01*
X451720Y522059D01*
X451791Y522134D01*
X451800Y522152D01*
X451813Y522167D01*
X451852Y522263D01*
X451895Y522357D01*
X451897Y522377D01*
X451905Y522395D01*
X451923Y522562D01*
X451923Y532573D01*
X457096Y532573D01*
X457211Y532591D01*
X457327Y532609D01*
X457333Y532611D01*
X457339Y532612D01*
X457442Y532667D01*
X457546Y532720D01*
X457551Y532725D01*
X457556Y532728D01*
X457637Y532813D01*
X457719Y532896D01*
X457722Y532902D01*
X457726Y532906D01*
X457734Y532923D01*
X457799Y533043D01*
X458054Y533657D01*
X459066Y534670D01*
X459119Y534744D01*
X459179Y534813D01*
X459191Y534843D01*
X459210Y534869D01*
X459237Y534956D01*
X459271Y535041D01*
X459275Y535082D01*
X459282Y535104D01*
X459281Y535137D01*
X459289Y535208D01*
X459289Y537046D01*
X459275Y537136D01*
X459267Y537227D01*
X459255Y537256D01*
X459250Y537288D01*
X459207Y537369D01*
X459171Y537453D01*
X459145Y537485D01*
X459134Y537506D01*
X459111Y537528D01*
X459066Y537584D01*
X428864Y567786D01*
X428790Y567839D01*
X428721Y567899D01*
X428690Y567911D01*
X428664Y567930D01*
X428577Y567957D01*
X428492Y567991D01*
X428451Y567995D01*
X428429Y568002D01*
X428397Y568001D01*
X428326Y568009D01*
X308687Y568009D01*
X308597Y567995D01*
X308506Y567987D01*
X308476Y567975D01*
X308444Y567970D01*
X308364Y567927D01*
X308280Y567891D01*
X308248Y567865D01*
X308227Y567854D01*
X308205Y567831D01*
X308149Y567786D01*
X306086Y565723D01*
X303168Y565723D01*
X303078Y565709D01*
X302987Y565701D01*
X302958Y565689D01*
X302926Y565684D01*
X302845Y565641D01*
X302761Y565605D01*
X302729Y565579D01*
X302708Y565568D01*
X302686Y565545D01*
X302630Y565500D01*
X298133Y561003D01*
X296981Y560526D01*
X296881Y560464D01*
X296781Y560404D01*
X296777Y560400D01*
X296772Y560396D01*
X296697Y560306D01*
X296621Y560217D01*
X296619Y560211D01*
X296615Y560207D01*
X296573Y560098D01*
X296529Y559989D01*
X296528Y559982D01*
X296527Y559977D01*
X296526Y559959D01*
X296511Y559822D01*
X296511Y538358D01*
X296514Y538338D01*
X296512Y538319D01*
X296534Y538217D01*
X296550Y538115D01*
X296560Y538098D01*
X296564Y538078D01*
X296617Y537989D01*
X296666Y537898D01*
X296680Y537884D01*
X296690Y537867D01*
X296769Y537800D01*
X296844Y537728D01*
X296862Y537720D01*
X296877Y537707D01*
X296973Y537668D01*
X297067Y537625D01*
X297087Y537623D01*
X297105Y537615D01*
X297272Y537597D01*
X312586Y537597D01*
X313449Y536734D01*
X313523Y536681D01*
X313592Y536621D01*
X313622Y536609D01*
X313649Y536590D01*
X313736Y536563D01*
X313820Y536529D01*
X313861Y536525D01*
X313884Y536518D01*
X313916Y536519D01*
X313987Y536511D01*
X333284Y536511D01*
X339353Y533997D01*
X344104Y529246D01*
X344104Y529245D01*
X372297Y501053D01*
X374811Y494984D01*
X374811Y465687D01*
X374825Y465597D01*
X374833Y465506D01*
X374845Y465476D01*
X374850Y465444D01*
X374893Y465364D01*
X374929Y465280D01*
X374955Y465248D01*
X374966Y465227D01*
X374989Y465205D01*
X375034Y465149D01*
X377097Y463086D01*
X377097Y447514D01*
X366086Y436503D01*
X350514Y436503D01*
X339503Y447514D01*
X339503Y463086D01*
X341566Y465149D01*
X341619Y465223D01*
X341679Y465292D01*
X341691Y465322D01*
X341710Y465349D01*
X341737Y465436D01*
X341771Y465520D01*
X341775Y465561D01*
X341782Y465584D01*
X341781Y465616D01*
X341789Y465687D01*
X341789Y484546D01*
X341775Y484636D01*
X341767Y484727D01*
X341755Y484756D01*
X341750Y484788D01*
X341707Y484869D01*
X341671Y484953D01*
X341645Y484985D01*
X341634Y485006D01*
X341611Y485028D01*
X341566Y485084D01*
X323384Y503266D01*
X323310Y503319D01*
X323241Y503379D01*
X323210Y503391D01*
X323184Y503410D01*
X323097Y503437D01*
X323012Y503471D01*
X322972Y503475D01*
X322949Y503482D01*
X322917Y503481D01*
X322846Y503489D01*
X316387Y503489D01*
X316297Y503475D01*
X316206Y503467D01*
X316176Y503455D01*
X316144Y503450D01*
X316064Y503407D01*
X315980Y503371D01*
X315948Y503345D01*
X315927Y503334D01*
X315905Y503311D01*
X315849Y503266D01*
X312586Y500003D01*
X297014Y500003D01*
X292638Y504379D01*
X292622Y504391D01*
X292610Y504406D01*
X292522Y504462D01*
X292439Y504523D01*
X292420Y504529D01*
X292403Y504539D01*
X292302Y504565D01*
X292203Y504595D01*
X292184Y504595D01*
X292164Y504599D01*
X292061Y504591D01*
X291958Y504589D01*
X291939Y504582D01*
X291919Y504580D01*
X291824Y504540D01*
X291727Y504504D01*
X291711Y504492D01*
X291693Y504484D01*
X291562Y504379D01*
X287186Y500003D01*
X284268Y500003D01*
X284178Y499989D01*
X284087Y499981D01*
X284058Y499969D01*
X284026Y499964D01*
X283945Y499921D01*
X283861Y499885D01*
X283829Y499859D01*
X283808Y499848D01*
X283786Y499825D01*
X283730Y499780D01*
X270734Y486784D01*
X270681Y486710D01*
X270621Y486641D01*
X270609Y486610D01*
X270590Y486584D01*
X270563Y486497D01*
X270529Y486412D01*
X270525Y486371D01*
X270518Y486349D01*
X270519Y486317D01*
X270511Y486246D01*
X270511Y446035D01*
X270525Y445944D01*
X270533Y445854D01*
X270545Y445824D01*
X270550Y445792D01*
X270593Y445711D01*
X270629Y445627D01*
X270655Y445595D01*
X270666Y445574D01*
X270689Y445552D01*
X270734Y445496D01*
X276861Y439369D01*
X276861Y420431D01*
X263469Y407039D01*
X244531Y407039D01*
X231139Y420431D01*
X231139Y439369D01*
X237266Y445496D01*
X237319Y445570D01*
X237379Y445640D01*
X237391Y445670D01*
X237410Y445696D01*
X237437Y445783D01*
X237471Y445868D01*
X237475Y445909D01*
X237482Y445931D01*
X237481Y445963D01*
X237489Y446035D01*
X237489Y496684D01*
X240003Y502753D01*
X260380Y523130D01*
X260433Y523204D01*
X260493Y523273D01*
X260505Y523304D01*
X260524Y523330D01*
X260551Y523417D01*
X260585Y523502D01*
X260589Y523543D01*
X260596Y523565D01*
X260595Y523597D01*
X260603Y523668D01*
X260603Y526586D01*
X263266Y529249D01*
X263319Y529323D01*
X263379Y529392D01*
X263391Y529422D01*
X263410Y529449D01*
X263437Y529536D01*
X263471Y529620D01*
X263475Y529661D01*
X263482Y529684D01*
X263481Y529716D01*
X263489Y529787D01*
X263489Y557728D01*
X263486Y557748D01*
X263488Y557767D01*
X263466Y557869D01*
X263450Y557971D01*
X263440Y557988D01*
X263436Y558008D01*
X263383Y558097D01*
X263334Y558188D01*
X263320Y558202D01*
X263310Y558219D01*
X263231Y558286D01*
X263156Y558358D01*
X263138Y558366D01*
X263123Y558379D01*
X263027Y558418D01*
X262933Y558461D01*
X262913Y558463D01*
X262895Y558471D01*
X262728Y558489D01*
X208524Y558489D01*
X208434Y558475D01*
X208343Y558467D01*
X208313Y558455D01*
X208281Y558450D01*
X208201Y558407D01*
X208117Y558371D01*
X208085Y558345D01*
X208064Y558334D01*
X208042Y558311D01*
X207986Y558266D01*
X204907Y555187D01*
X188493Y555187D01*
X176887Y566793D01*
X176887Y583207D01*
X188493Y594813D01*
X204907Y594813D01*
X207986Y591734D01*
X208060Y591681D01*
X208129Y591621D01*
X208159Y591609D01*
X208185Y591590D01*
X208272Y591563D01*
X208357Y591529D01*
X208398Y591525D01*
X208421Y591518D01*
X208453Y591519D01*
X208524Y591511D01*
X278742Y591511D01*
X278762Y591514D01*
X278781Y591512D01*
X278883Y591534D01*
X278985Y591550D01*
X279002Y591560D01*
X279022Y591564D01*
X279111Y591617D01*
X279202Y591666D01*
X279216Y591680D01*
X279233Y591690D01*
X279300Y591769D01*
X279372Y591844D01*
X279380Y591862D01*
X279393Y591877D01*
X279432Y591973D01*
X279475Y592067D01*
X279477Y592087D01*
X279485Y592105D01*
X279503Y592272D01*
X279503Y592306D01*
X290514Y603317D01*
X306086Y603317D01*
X308149Y601254D01*
X308223Y601201D01*
X308292Y601141D01*
X308322Y601129D01*
X308349Y601110D01*
X308436Y601083D01*
X308520Y601049D01*
X308561Y601045D01*
X308584Y601038D01*
X308616Y601039D01*
X308687Y601031D01*
X438764Y601031D01*
X444833Y598517D01*
X489797Y553553D01*
X492311Y547484D01*
X492311Y541915D01*
X492318Y541869D01*
X492316Y541823D01*
X492338Y541749D01*
X492350Y541672D01*
X492372Y541631D01*
X492385Y541587D01*
X492429Y541523D01*
X492466Y541455D01*
X492499Y541423D01*
X492525Y541385D01*
X492588Y541339D01*
X492644Y541285D01*
X492686Y541266D01*
X492722Y541238D01*
X492796Y541214D01*
X492867Y541182D01*
X492913Y541176D01*
X492956Y541162D01*
X493034Y541163D01*
X493111Y541154D01*
X493156Y541164D01*
X493202Y541165D01*
X493334Y541203D01*
X493352Y541207D01*
X493356Y541209D01*
X493363Y541211D01*
X497036Y542733D01*
X505364Y542733D01*
X513057Y539546D01*
X518946Y533657D01*
X522133Y525964D01*
X522133Y517636D01*
X518946Y509943D01*
X517934Y508930D01*
X517881Y508856D01*
X517821Y508787D01*
X517809Y508757D01*
X517790Y508731D01*
X517763Y508644D01*
X517729Y508559D01*
X517725Y508518D01*
X517718Y508496D01*
X517719Y508463D01*
X517711Y508392D01*
X517711Y485954D01*
X517725Y485864D01*
X517733Y485773D01*
X517745Y485744D01*
X517750Y485712D01*
X517775Y485665D01*
X517776Y485663D01*
X517781Y485653D01*
X517793Y485631D01*
X517829Y485547D01*
X517855Y485515D01*
X517866Y485494D01*
X517889Y485472D01*
X517892Y485468D01*
X517902Y485452D01*
X517912Y485443D01*
X517934Y485416D01*
X535916Y467434D01*
X535990Y467381D01*
X536059Y467321D01*
X536090Y467309D01*
X536116Y467290D01*
X536203Y467263D01*
X536288Y467229D01*
X536328Y467225D01*
X536351Y467218D01*
X536383Y467219D01*
X536454Y467211D01*
X838313Y467211D01*
X838403Y467225D01*
X838494Y467233D01*
X838524Y467245D01*
X838556Y467250D01*
X838636Y467293D01*
X838720Y467329D01*
X838752Y467355D01*
X838773Y467366D01*
X838795Y467389D01*
X838851Y467434D01*
X840914Y469497D01*
X841251Y469497D01*
X841322Y469508D01*
X841394Y469510D01*
X841443Y469528D01*
X841494Y469536D01*
X841557Y469570D01*
X841625Y469595D01*
X841665Y469627D01*
X841711Y469652D01*
X841761Y469704D01*
X841817Y469748D01*
X841845Y469792D01*
X841881Y469830D01*
X841911Y469895D01*
X841950Y469955D01*
X841962Y470006D01*
X841984Y470053D01*
X841992Y470124D01*
X842010Y470194D01*
X842006Y470246D01*
X842012Y470297D01*
X841996Y470368D01*
X841991Y470439D01*
X841970Y470487D01*
X841959Y470538D01*
X841922Y470599D01*
X841894Y470665D01*
X841850Y470721D01*
X841833Y470749D01*
X841815Y470764D01*
X841790Y470796D01*
X840063Y472523D01*
X840063Y474577D01*
X847938Y474577D01*
X847958Y474580D01*
X847977Y474578D01*
X848079Y474600D01*
X848181Y474617D01*
X848198Y474626D01*
X848218Y474630D01*
X848307Y474683D01*
X848398Y474732D01*
X848412Y474746D01*
X848429Y474756D01*
X848496Y474835D01*
X848567Y474910D01*
X848576Y474928D01*
X848589Y474943D01*
X848627Y475039D01*
X848671Y475133D01*
X848673Y475153D01*
X848681Y475171D01*
X848699Y475338D01*
X848699Y476101D01*
X848701Y476101D01*
X848701Y475338D01*
X848704Y475318D01*
X848702Y475299D01*
X848724Y475197D01*
X848741Y475095D01*
X848750Y475078D01*
X848754Y475058D01*
X848807Y474969D01*
X848856Y474878D01*
X848870Y474864D01*
X848880Y474847D01*
X848959Y474780D01*
X849034Y474709D01*
X849052Y474700D01*
X849067Y474687D01*
X849163Y474648D01*
X849257Y474605D01*
X849277Y474603D01*
X849295Y474595D01*
X849462Y474577D01*
X857337Y474577D01*
X857337Y472523D01*
X855610Y470796D01*
X855569Y470738D01*
X855519Y470686D01*
X855497Y470639D01*
X855467Y470597D01*
X855446Y470528D01*
X855416Y470463D01*
X855410Y470411D01*
X855395Y470361D01*
X855396Y470290D01*
X855388Y470219D01*
X855400Y470168D01*
X855401Y470116D01*
X855426Y470048D01*
X855441Y469978D01*
X855467Y469933D01*
X855485Y469885D01*
X855530Y469829D01*
X855567Y469767D01*
X855606Y469733D01*
X855639Y469693D01*
X855699Y469654D01*
X855754Y469607D01*
X855802Y469588D01*
X855846Y469560D01*
X855915Y469542D01*
X855982Y469515D01*
X856053Y469507D01*
X856084Y469499D01*
X856108Y469501D01*
X856149Y469497D01*
X856486Y469497D01*
X867497Y458486D01*
X867497Y442914D01*
X865434Y440851D01*
X865381Y440777D01*
X865321Y440708D01*
X865309Y440678D01*
X865290Y440651D01*
X865263Y440564D01*
X865229Y440480D01*
X865225Y440439D01*
X865218Y440416D01*
X865219Y440384D01*
X865211Y440313D01*
X865211Y338454D01*
X865225Y338364D01*
X865233Y338273D01*
X865245Y338244D01*
X865250Y338212D01*
X865293Y338131D01*
X865329Y338047D01*
X865355Y338015D01*
X865366Y337994D01*
X865389Y337972D01*
X865434Y337916D01*
X885216Y318134D01*
X885290Y318081D01*
X885359Y318021D01*
X885390Y318009D01*
X885416Y317990D01*
X885503Y317963D01*
X885588Y317929D01*
X885629Y317925D01*
X885651Y317918D01*
X885683Y317919D01*
X885754Y317911D01*
X906678Y317911D01*
X906768Y317925D01*
X906859Y317933D01*
X906889Y317945D01*
X906920Y317950D01*
X907001Y317993D01*
X907085Y318029D01*
X907117Y318055D01*
X907138Y318066D01*
X907160Y318089D01*
X907216Y318134D01*
X908032Y318950D01*
X915641Y322102D01*
X944959Y322102D01*
X952568Y318950D01*
X958391Y313127D01*
X961543Y305518D01*
X961543Y297282D01*
X958391Y289673D01*
X952568Y283850D01*
X944959Y280698D01*
X915641Y280698D01*
X914073Y281348D01*
X913978Y281370D01*
X913885Y281399D01*
X913859Y281398D01*
X913834Y281404D01*
X913737Y281395D01*
X913639Y281392D01*
X913615Y281383D01*
X913589Y281381D01*
X913500Y281341D01*
X913408Y281308D01*
X913388Y281291D01*
X913364Y281281D01*
X913292Y281215D01*
X913216Y281154D01*
X913202Y281132D01*
X913183Y281114D01*
X913136Y281029D01*
X913083Y280947D01*
X913077Y280922D01*
X913064Y280899D01*
X913047Y280803D01*
X913023Y280709D01*
X913025Y280683D01*
X913021Y280657D01*
X913035Y280560D01*
X913042Y280463D01*
X913053Y280439D01*
X913056Y280414D01*
X913101Y280327D01*
X913139Y280237D01*
X913159Y280212D01*
X913168Y280194D01*
X913192Y280171D01*
X913243Y280106D01*
X929246Y264104D01*
X933997Y259353D01*
X936511Y253284D01*
X936511Y99528D01*
X936527Y99432D01*
X936536Y99335D01*
X936546Y99311D01*
X936550Y99285D01*
X936596Y99199D01*
X936636Y99110D01*
X936653Y99091D01*
X936666Y99068D01*
X936736Y99001D01*
X936802Y98929D01*
X936825Y98916D01*
X936844Y98899D01*
X936932Y98858D01*
X937018Y98811D01*
X937043Y98806D01*
X937067Y98795D01*
X937164Y98784D01*
X937260Y98767D01*
X937292Y98770D01*
X937311Y98768D01*
X937344Y98775D01*
X937427Y98783D01*
X946534Y100675D01*
X960334Y99731D01*
X973368Y95099D01*
X984669Y87122D01*
X987726Y83365D01*
X987808Y83292D01*
X987888Y83216D01*
X987900Y83211D01*
X987910Y83202D01*
X988011Y83159D01*
X988111Y83112D01*
X988124Y83111D01*
X988136Y83106D01*
X988246Y83098D01*
X988355Y83085D01*
X988368Y83088D01*
X988381Y83087D01*
X988488Y83114D01*
X988596Y83138D01*
X988607Y83144D01*
X988620Y83148D01*
X988712Y83207D01*
X988807Y83264D01*
X988815Y83274D01*
X988826Y83281D01*
X988895Y83367D01*
X988967Y83451D01*
X988972Y83463D01*
X988980Y83473D01*
X989018Y83577D01*
X989059Y83679D01*
X989061Y83695D01*
X989064Y83704D01*
X989065Y83732D01*
X989077Y83846D01*
X989077Y716154D01*
X989059Y716263D01*
X989045Y716373D01*
X989040Y716384D01*
X989038Y716397D01*
X988986Y716495D01*
X988938Y716594D01*
X988929Y716603D01*
X988922Y716615D01*
X988843Y716690D01*
X988765Y716769D01*
X988754Y716775D01*
X988744Y716784D01*
X988644Y716830D01*
X988546Y716880D01*
X988533Y716882D01*
X988521Y716888D01*
X988411Y716900D01*
X988302Y716916D01*
X988289Y716913D01*
X988277Y716915D01*
X988169Y716891D01*
X988060Y716871D01*
X988049Y716865D01*
X988036Y716862D01*
X987942Y716806D01*
X987845Y716752D01*
X987834Y716741D01*
X987825Y716736D01*
X987807Y716715D01*
X987726Y716635D01*
X984669Y712878D01*
X973368Y704901D01*
X960334Y700269D01*
X946534Y699325D01*
X932990Y702139D01*
X920708Y708503D01*
X910599Y717945D01*
X903412Y729764D01*
X899680Y743084D01*
X899680Y756916D01*
X899844Y757504D01*
X901550Y763594D01*
X901551Y763594D01*
X903257Y769684D01*
X903412Y770236D01*
X910599Y782055D01*
X916707Y787760D01*
X916759Y787827D01*
X916817Y787888D01*
X916833Y787923D01*
X916857Y787954D01*
X916885Y788034D01*
X916920Y788111D01*
X916925Y788150D01*
X916937Y788187D01*
X916938Y788272D01*
X916947Y788355D01*
X916939Y788394D01*
X916940Y788433D01*
X916913Y788513D01*
X916895Y788596D01*
X916875Y788629D01*
X916863Y788667D01*
X916812Y788734D01*
X916769Y788807D01*
X916739Y788832D01*
X916716Y788864D01*
X916646Y788912D01*
X916582Y788967D01*
X916546Y788982D01*
X916514Y789004D01*
X916433Y789027D01*
X916354Y789059D01*
X916303Y789064D01*
X916277Y789072D01*
X916247Y789071D01*
X916187Y789077D01*
X84297Y789077D01*
X84284Y789075D01*
X84271Y789077D01*
X84163Y789055D01*
X84055Y789038D01*
X84043Y789031D01*
X84030Y789029D01*
X83934Y788974D01*
X83837Y788922D01*
X83828Y788913D01*
X83817Y788906D01*
X83744Y788824D01*
X83668Y788744D01*
X83662Y788732D01*
X83654Y788722D01*
X83611Y788621D01*
X83564Y788521D01*
X83563Y788508D01*
X83558Y788496D01*
X83549Y788386D01*
X83537Y788277D01*
X83540Y788264D01*
X83539Y788250D01*
X83566Y788143D01*
X83590Y788036D01*
X83596Y788025D01*
X83600Y788012D01*
X83659Y787920D01*
X83716Y787825D01*
X83726Y787816D01*
X83733Y787805D01*
X83858Y787694D01*
X84669Y787122D01*
X93399Y776392D01*
X98910Y763704D01*
X100794Y750000D01*
X98910Y736296D01*
X93399Y723608D01*
X84669Y712878D01*
X73368Y704901D01*
X60334Y700269D01*
X46534Y699325D01*
X32990Y702139D01*
X20708Y708503D01*
X12204Y716446D01*
X12155Y716479D01*
X12112Y716519D01*
X12053Y716547D01*
X11999Y716583D01*
X11942Y716598D01*
X11889Y716623D01*
X11824Y716630D01*
X11762Y716647D01*
X11703Y716644D01*
X11645Y716650D01*
X11581Y716636D01*
X11516Y716632D01*
X11462Y716610D01*
X11404Y716598D01*
X11348Y716564D01*
X11288Y716540D01*
X11243Y716502D01*
X11193Y716472D01*
X11151Y716422D01*
X11101Y716380D01*
X11071Y716329D01*
X11033Y716285D01*
X11009Y716224D01*
X10976Y716168D01*
X10963Y716111D01*
X10941Y716056D01*
X10930Y715959D01*
X10924Y715928D01*
X10925Y715913D01*
X10923Y715890D01*
X10923Y84110D01*
X10932Y84052D01*
X10932Y83993D01*
X10952Y83932D01*
X10962Y83867D01*
X10990Y83816D01*
X11008Y83760D01*
X11047Y83708D01*
X11078Y83650D01*
X11120Y83610D01*
X11155Y83562D01*
X11209Y83525D01*
X11256Y83481D01*
X11309Y83456D01*
X11358Y83423D01*
X11420Y83404D01*
X11479Y83377D01*
X11537Y83371D01*
X11594Y83354D01*
X11659Y83357D01*
X11723Y83350D01*
X11781Y83363D01*
X11840Y83365D01*
X11900Y83388D01*
X11964Y83402D01*
X12014Y83432D01*
X12069Y83454D01*
X12147Y83512D01*
X12175Y83528D01*
X12185Y83540D01*
X12204Y83554D01*
X20708Y91497D01*
X32990Y97861D01*
X46534Y100675D01*
X60334Y99731D01*
X73368Y95099D01*
X84669Y87122D01*
X93399Y76392D01*
X98910Y63704D01*
X100794Y50000D01*
X98910Y36296D01*
X93399Y23608D01*
X84669Y12878D01*
X83858Y12306D01*
X83849Y12297D01*
X83837Y12290D01*
X83761Y12211D01*
X83683Y12133D01*
X83677Y12122D01*
X83668Y12112D01*
X83621Y12012D01*
X83572Y11914D01*
X83570Y11901D01*
X83564Y11889D01*
X83552Y11779D01*
X83536Y11671D01*
X83539Y11658D01*
X83537Y11645D01*
X83561Y11537D01*
X83580Y11429D01*
X83587Y11417D01*
X83590Y11404D01*
X83646Y11309D01*
X83699Y11213D01*
X83709Y11204D01*
X83716Y11193D01*
X83799Y11122D01*
X83880Y11047D01*
X83893Y11042D01*
X83903Y11033D01*
X84005Y10992D01*
X84105Y10947D01*
X84118Y10946D01*
X84131Y10941D01*
X84297Y10923D01*
X916187Y10923D01*
X916271Y10936D01*
G37*
%LPC*%
G36*
X636716Y93489D02*
X636716Y93489D01*
X630647Y96003D01*
X607203Y119447D01*
X604689Y125516D01*
X604689Y136080D01*
X604675Y136170D01*
X604667Y136261D01*
X604655Y136291D01*
X604650Y136323D01*
X604607Y136403D01*
X604571Y136487D01*
X604545Y136519D01*
X604534Y136540D01*
X604511Y136562D01*
X604466Y136618D01*
X603327Y137758D01*
X600117Y145506D01*
X600117Y153894D01*
X603327Y161642D01*
X609258Y167573D01*
X617006Y170783D01*
X625394Y170783D01*
X633142Y167573D01*
X639073Y161642D01*
X642283Y153894D01*
X642283Y145506D01*
X639073Y137758D01*
X637934Y136618D01*
X637881Y136544D01*
X637821Y136475D01*
X637809Y136445D01*
X637790Y136418D01*
X637763Y136331D01*
X637729Y136247D01*
X637725Y136206D01*
X637718Y136183D01*
X637719Y136151D01*
X637711Y136080D01*
X637711Y135954D01*
X637725Y135864D01*
X637733Y135773D01*
X637745Y135744D01*
X637750Y135712D01*
X637793Y135631D01*
X637829Y135547D01*
X637855Y135515D01*
X637866Y135494D01*
X637889Y135472D01*
X637934Y135416D01*
X646616Y126734D01*
X646690Y126681D01*
X646759Y126621D01*
X646790Y126609D01*
X646816Y126590D01*
X646903Y126563D01*
X646988Y126529D01*
X647029Y126525D01*
X647051Y126518D01*
X647083Y126519D01*
X647154Y126511D01*
X741728Y126511D01*
X741748Y126514D01*
X741767Y126512D01*
X741869Y126534D01*
X741971Y126550D01*
X741988Y126560D01*
X742008Y126564D01*
X742097Y126617D01*
X742188Y126666D01*
X742202Y126680D01*
X742219Y126690D01*
X742286Y126769D01*
X742358Y126844D01*
X742366Y126862D01*
X742379Y126877D01*
X742418Y126973D01*
X742461Y127067D01*
X742463Y127087D01*
X742471Y127105D01*
X742489Y127272D01*
X742489Y136080D01*
X742475Y136170D01*
X742467Y136261D01*
X742455Y136291D01*
X742450Y136323D01*
X742407Y136403D01*
X742371Y136487D01*
X742345Y136519D01*
X742334Y136540D01*
X742311Y136562D01*
X742266Y136618D01*
X741127Y137758D01*
X737917Y145506D01*
X737917Y153894D01*
X741127Y161642D01*
X747058Y167573D01*
X754806Y170783D01*
X763194Y170783D01*
X770942Y167573D01*
X776873Y161642D01*
X780083Y153894D01*
X780083Y145506D01*
X776873Y137758D01*
X775734Y136618D01*
X775681Y136544D01*
X775621Y136475D01*
X775609Y136445D01*
X775590Y136418D01*
X775563Y136331D01*
X775529Y136247D01*
X775525Y136206D01*
X775518Y136183D01*
X775519Y136151D01*
X775511Y136080D01*
X775511Y115716D01*
X772997Y109647D01*
X759353Y96003D01*
X753284Y93489D01*
X636716Y93489D01*
G37*
%LPD*%
G36*
X472936Y686525D02*
X472936Y686525D01*
X473027Y686533D01*
X473056Y686545D01*
X473088Y686550D01*
X473169Y686593D01*
X473253Y686629D01*
X473285Y686655D01*
X473306Y686666D01*
X473328Y686689D01*
X473384Y686734D01*
X480166Y693516D01*
X480219Y693590D01*
X480279Y693659D01*
X480291Y693690D01*
X480310Y693716D01*
X480337Y693803D01*
X480371Y693888D01*
X480375Y693929D01*
X480382Y693951D01*
X480381Y693983D01*
X480389Y694054D01*
X480389Y702424D01*
X480375Y702514D01*
X480367Y702605D01*
X480355Y702635D01*
X480350Y702667D01*
X480307Y702747D01*
X480271Y702831D01*
X480245Y702863D01*
X480234Y702884D01*
X480211Y702906D01*
X480166Y702962D01*
X480104Y703025D01*
X478708Y706393D01*
X478651Y706486D01*
X478597Y706581D01*
X478586Y706590D01*
X478579Y706602D01*
X478495Y706672D01*
X478413Y706744D01*
X478400Y706750D01*
X478389Y706759D01*
X478288Y706798D01*
X478187Y706841D01*
X478173Y706842D01*
X478160Y706847D01*
X478051Y706852D01*
X477942Y706860D01*
X477928Y706857D01*
X477914Y706858D01*
X477809Y706827D01*
X477703Y706801D01*
X477688Y706792D01*
X477678Y706789D01*
X477654Y706773D01*
X477558Y706718D01*
X476559Y705992D01*
X475205Y705302D01*
X473760Y704833D01*
X473023Y704716D01*
X473023Y723138D01*
X473020Y723158D01*
X473022Y723177D01*
X473000Y723279D01*
X472983Y723381D01*
X472974Y723398D01*
X472970Y723418D01*
X472917Y723507D01*
X472868Y723598D01*
X472854Y723612D01*
X472844Y723629D01*
X472765Y723696D01*
X472690Y723767D01*
X472672Y723776D01*
X472657Y723789D01*
X472561Y723827D01*
X472467Y723871D01*
X472447Y723873D01*
X472429Y723881D01*
X472262Y723899D01*
X470738Y723899D01*
X470718Y723896D01*
X470699Y723898D01*
X470597Y723876D01*
X470495Y723859D01*
X470478Y723850D01*
X470458Y723846D01*
X470369Y723793D01*
X470278Y723744D01*
X470264Y723730D01*
X470247Y723720D01*
X470180Y723641D01*
X470109Y723566D01*
X470100Y723548D01*
X470087Y723533D01*
X470048Y723437D01*
X470005Y723343D01*
X470003Y723323D01*
X469995Y723305D01*
X469977Y723138D01*
X469977Y704716D01*
X469240Y704833D01*
X467795Y705302D01*
X466441Y705992D01*
X465442Y706718D01*
X465345Y706767D01*
X465249Y706819D01*
X465235Y706822D01*
X465223Y706828D01*
X465115Y706844D01*
X465007Y706863D01*
X464993Y706861D01*
X464979Y706863D01*
X464872Y706843D01*
X464764Y706827D01*
X464751Y706821D01*
X464737Y706818D01*
X464642Y706765D01*
X464545Y706716D01*
X464535Y706706D01*
X464522Y706699D01*
X464449Y706618D01*
X464372Y706540D01*
X464364Y706525D01*
X464357Y706517D01*
X464345Y706490D01*
X464292Y706393D01*
X462896Y703025D01*
X457323Y697452D01*
X450041Y694435D01*
X442159Y694435D01*
X434877Y697452D01*
X429304Y703025D01*
X426287Y710307D01*
X426287Y720048D01*
X426273Y720138D01*
X426265Y720229D01*
X426253Y720259D01*
X426248Y720290D01*
X426205Y720371D01*
X426169Y720455D01*
X426143Y720487D01*
X426132Y720508D01*
X426109Y720530D01*
X426064Y720586D01*
X423384Y723266D01*
X423310Y723319D01*
X423241Y723379D01*
X423211Y723391D01*
X423184Y723410D01*
X423097Y723437D01*
X423012Y723471D01*
X422972Y723475D01*
X422949Y723482D01*
X422917Y723481D01*
X422846Y723489D01*
X303653Y723489D01*
X303589Y723479D01*
X303523Y723478D01*
X303443Y723455D01*
X303411Y723450D01*
X303393Y723440D01*
X303362Y723431D01*
X302039Y722883D01*
X294561Y722883D01*
X293238Y723431D01*
X293174Y723446D01*
X293113Y723471D01*
X293031Y723480D01*
X292999Y723487D01*
X292979Y723486D01*
X292947Y723489D01*
X241575Y723489D01*
X241530Y723482D01*
X241484Y723484D01*
X241409Y723462D01*
X241333Y723450D01*
X241292Y723428D01*
X241248Y723415D01*
X241184Y723371D01*
X241115Y723334D01*
X241084Y723301D01*
X241046Y723275D01*
X240999Y723212D01*
X240946Y723156D01*
X240926Y723114D01*
X240899Y723078D01*
X240875Y723004D01*
X240842Y722933D01*
X240837Y722887D01*
X240823Y722844D01*
X240824Y722766D01*
X240815Y722689D01*
X240825Y722644D01*
X240825Y722598D01*
X240863Y722466D01*
X240867Y722448D01*
X240870Y722444D01*
X240872Y722437D01*
X243521Y716042D01*
X243521Y715344D01*
X243535Y715254D01*
X243543Y715163D01*
X243555Y715134D01*
X243560Y715102D01*
X243603Y715021D01*
X243639Y714937D01*
X243665Y714905D01*
X243676Y714884D01*
X243699Y714862D01*
X243744Y714806D01*
X271816Y686734D01*
X271890Y686681D01*
X271959Y686621D01*
X271990Y686609D01*
X272016Y686590D01*
X272103Y686563D01*
X272188Y686529D01*
X272229Y686525D01*
X272251Y686518D01*
X272283Y686519D01*
X272354Y686511D01*
X472846Y686511D01*
X472936Y686525D01*
G37*
G36*
X125346Y581514D02*
X125346Y581514D01*
X125365Y581512D01*
X125467Y581534D01*
X125569Y581550D01*
X125586Y581560D01*
X125606Y581564D01*
X125695Y581617D01*
X125786Y581666D01*
X125800Y581680D01*
X125817Y581690D01*
X125884Y581769D01*
X125956Y581844D01*
X125964Y581862D01*
X125977Y581877D01*
X126016Y581973D01*
X126059Y582067D01*
X126061Y582087D01*
X126069Y582105D01*
X126087Y582272D01*
X126087Y583207D01*
X134669Y591788D01*
X134711Y591846D01*
X134760Y591898D01*
X134782Y591946D01*
X134812Y591988D01*
X134833Y592056D01*
X134864Y592121D01*
X134869Y592173D01*
X134885Y592223D01*
X134883Y592295D01*
X134891Y592366D01*
X134880Y592417D01*
X134878Y592469D01*
X134854Y592536D01*
X134838Y592606D01*
X134812Y592651D01*
X134794Y592700D01*
X134749Y592756D01*
X134712Y592817D01*
X134673Y592851D01*
X134640Y592892D01*
X134580Y592931D01*
X134525Y592977D01*
X134477Y592997D01*
X134433Y593025D01*
X134364Y593042D01*
X134297Y593069D01*
X134226Y593077D01*
X134195Y593085D01*
X134171Y593083D01*
X134130Y593088D01*
X119858Y593088D01*
X114630Y595253D01*
X110521Y599362D01*
X101169Y608714D01*
X101074Y608782D01*
X100980Y608852D01*
X100974Y608854D01*
X100969Y608858D01*
X100858Y608892D01*
X100746Y608928D01*
X100740Y608928D01*
X100734Y608930D01*
X100617Y608927D01*
X100500Y608926D01*
X100493Y608924D01*
X100488Y608924D01*
X100471Y608917D01*
X100339Y608879D01*
X97756Y607809D01*
X97717Y607785D01*
X97674Y607769D01*
X97613Y607721D01*
X97547Y607680D01*
X97518Y607644D01*
X97482Y607615D01*
X97440Y607550D01*
X97390Y607490D01*
X97374Y607447D01*
X97349Y607409D01*
X97330Y607333D01*
X97302Y607260D01*
X97300Y607215D01*
X97289Y607170D01*
X97295Y607093D01*
X97292Y607015D01*
X97304Y606971D01*
X97308Y606925D01*
X97338Y606853D01*
X97360Y606778D01*
X97386Y606741D01*
X97404Y606699D01*
X97490Y606592D01*
X97500Y606576D01*
X97504Y606573D01*
X97509Y606568D01*
X97847Y606229D01*
X98848Y604732D01*
X99537Y603067D01*
X99765Y601923D01*
X82362Y601923D01*
X82342Y601920D01*
X82323Y601922D01*
X82221Y601900D01*
X82119Y601883D01*
X82102Y601874D01*
X82082Y601870D01*
X81993Y601817D01*
X81902Y601768D01*
X81888Y601754D01*
X81871Y601744D01*
X81804Y601665D01*
X81733Y601590D01*
X81724Y601572D01*
X81711Y601557D01*
X81673Y601461D01*
X81629Y601367D01*
X81627Y601347D01*
X81619Y601329D01*
X81601Y601162D01*
X81601Y599638D01*
X81604Y599618D01*
X81602Y599599D01*
X81624Y599497D01*
X81641Y599395D01*
X81650Y599378D01*
X81654Y599358D01*
X81707Y599269D01*
X81756Y599178D01*
X81770Y599164D01*
X81780Y599147D01*
X81859Y599080D01*
X81934Y599009D01*
X81952Y599000D01*
X81967Y598987D01*
X82063Y598948D01*
X82157Y598905D01*
X82177Y598903D01*
X82195Y598895D01*
X82362Y598877D01*
X99765Y598877D01*
X99537Y597733D01*
X98848Y596068D01*
X97847Y594571D01*
X97509Y594232D01*
X97482Y594195D01*
X97448Y594164D01*
X97411Y594096D01*
X97365Y594033D01*
X97352Y593989D01*
X97330Y593949D01*
X97316Y593872D01*
X97293Y593798D01*
X97294Y593752D01*
X97286Y593707D01*
X97297Y593630D01*
X97299Y593552D01*
X97315Y593509D01*
X97322Y593463D01*
X97357Y593394D01*
X97384Y593321D01*
X97413Y593285D01*
X97433Y593244D01*
X97489Y593189D01*
X97538Y593129D01*
X97576Y593104D01*
X97609Y593072D01*
X97729Y593006D01*
X97745Y592996D01*
X97749Y592994D01*
X97756Y592991D01*
X101679Y591366D01*
X107110Y585935D01*
X108748Y581981D01*
X108809Y581881D01*
X108869Y581781D01*
X108874Y581777D01*
X108877Y581772D01*
X108967Y581697D01*
X109056Y581621D01*
X109062Y581619D01*
X109067Y581615D01*
X109175Y581573D01*
X109284Y581529D01*
X109292Y581528D01*
X109297Y581527D01*
X109315Y581526D01*
X109451Y581511D01*
X125326Y581511D01*
X125346Y581514D01*
G37*
%LPC*%
G36*
X931823Y439923D02*
X931823Y439923D01*
X931823Y448942D01*
X941671Y448942D01*
X943309Y448682D01*
X944888Y448169D01*
X946366Y447416D01*
X947708Y446441D01*
X948882Y445267D01*
X949857Y443925D01*
X950610Y442447D01*
X951123Y440868D01*
X951273Y439923D01*
X931823Y439923D01*
G37*
%LPD*%
%LPC*%
G36*
X212823Y70223D02*
X212823Y70223D01*
X212823Y89673D01*
X213768Y89523D01*
X215347Y89010D01*
X216825Y88257D01*
X218167Y87282D01*
X219341Y86108D01*
X220316Y84766D01*
X221069Y83288D01*
X221582Y81709D01*
X221842Y80071D01*
X221842Y70223D01*
X212823Y70223D01*
G37*
%LPD*%
%LPC*%
G36*
X931823Y584223D02*
X931823Y584223D01*
X931823Y593242D01*
X941671Y593242D01*
X943309Y592982D01*
X944888Y592469D01*
X946366Y591716D01*
X947708Y590741D01*
X948882Y589567D01*
X949857Y588225D01*
X950610Y586747D01*
X951123Y585168D01*
X951273Y584223D01*
X931823Y584223D01*
G37*
%LPD*%
%LPC*%
G36*
X931823Y352923D02*
X931823Y352923D01*
X931823Y361942D01*
X941671Y361942D01*
X943309Y361682D01*
X944888Y361169D01*
X946366Y360416D01*
X947708Y359441D01*
X948882Y358267D01*
X949857Y356925D01*
X950610Y355447D01*
X951123Y353868D01*
X951273Y352923D01*
X931823Y352923D01*
G37*
%LPD*%
%LPC*%
G36*
X909327Y439923D02*
X909327Y439923D01*
X909477Y440868D01*
X909990Y442447D01*
X910743Y443925D01*
X911718Y445267D01*
X912892Y446441D01*
X914234Y447416D01*
X915712Y448169D01*
X917291Y448682D01*
X918929Y448942D01*
X928777Y448942D01*
X928777Y439923D01*
X909327Y439923D01*
G37*
%LPD*%
%LPC*%
G36*
X909327Y352923D02*
X909327Y352923D01*
X909477Y353868D01*
X909990Y355447D01*
X910743Y356925D01*
X911718Y358267D01*
X912892Y359441D01*
X914234Y360416D01*
X915712Y361169D01*
X917291Y361682D01*
X918929Y361942D01*
X928777Y361942D01*
X928777Y352923D01*
X909327Y352923D01*
G37*
%LPD*%
%LPC*%
G36*
X909327Y584223D02*
X909327Y584223D01*
X909477Y585168D01*
X909990Y586747D01*
X910743Y588225D01*
X911718Y589567D01*
X912892Y590741D01*
X914234Y591716D01*
X915712Y592469D01*
X917291Y592982D01*
X918929Y593242D01*
X928777Y593242D01*
X928777Y584223D01*
X909327Y584223D01*
G37*
%LPD*%
%LPC*%
G36*
X931823Y340858D02*
X931823Y340858D01*
X931823Y349877D01*
X951273Y349877D01*
X951123Y348932D01*
X950610Y347353D01*
X949857Y345875D01*
X948882Y344533D01*
X947708Y343359D01*
X946366Y342384D01*
X944888Y341631D01*
X943309Y341118D01*
X941671Y340858D01*
X931823Y340858D01*
G37*
%LPD*%
%LPC*%
G36*
X931823Y427858D02*
X931823Y427858D01*
X931823Y436877D01*
X951273Y436877D01*
X951123Y435932D01*
X950610Y434353D01*
X949857Y432875D01*
X948882Y431533D01*
X947708Y430359D01*
X946366Y429384D01*
X944888Y428631D01*
X943309Y428118D01*
X941671Y427858D01*
X931823Y427858D01*
G37*
%LPD*%
%LPC*%
G36*
X200758Y70223D02*
X200758Y70223D01*
X200758Y80071D01*
X201018Y81709D01*
X201531Y83288D01*
X202284Y84766D01*
X203259Y86108D01*
X204433Y87282D01*
X205775Y88257D01*
X207253Y89010D01*
X208832Y89523D01*
X209777Y89673D01*
X209777Y70223D01*
X200758Y70223D01*
G37*
%LPD*%
%LPC*%
G36*
X931823Y572158D02*
X931823Y572158D01*
X931823Y581177D01*
X951273Y581177D01*
X951123Y580232D01*
X950610Y578653D01*
X949857Y577175D01*
X948882Y575833D01*
X947708Y574659D01*
X946366Y573684D01*
X944888Y572931D01*
X943309Y572418D01*
X941671Y572158D01*
X931823Y572158D01*
G37*
%LPD*%
%LPC*%
G36*
X918929Y427858D02*
X918929Y427858D01*
X917291Y428118D01*
X915712Y428631D01*
X914234Y429384D01*
X912892Y430359D01*
X911718Y431533D01*
X910743Y432875D01*
X909990Y434353D01*
X909477Y435932D01*
X909327Y436877D01*
X928777Y436877D01*
X928777Y427858D01*
X918929Y427858D01*
G37*
%LPD*%
%LPC*%
G36*
X918929Y340858D02*
X918929Y340858D01*
X917291Y341118D01*
X915712Y341631D01*
X914234Y342384D01*
X912892Y343359D01*
X911718Y344533D01*
X910743Y345875D01*
X909990Y347353D01*
X909477Y348932D01*
X909327Y349877D01*
X928777Y349877D01*
X928777Y340858D01*
X918929Y340858D01*
G37*
%LPD*%
%LPC*%
G36*
X918929Y572158D02*
X918929Y572158D01*
X917291Y572418D01*
X915712Y572931D01*
X914234Y573684D01*
X912892Y574659D01*
X911718Y575833D01*
X910743Y577175D01*
X909990Y578653D01*
X909477Y580232D01*
X909327Y581177D01*
X928777Y581177D01*
X928777Y572158D01*
X918929Y572158D01*
G37*
%LPD*%
%LPC*%
G36*
X675555Y255523D02*
X675555Y255523D01*
X675555Y264045D01*
X675907Y265811D01*
X676596Y267476D01*
X677597Y268974D01*
X678870Y270247D01*
X680368Y271248D01*
X682033Y271937D01*
X683177Y272165D01*
X683177Y255523D01*
X675555Y255523D01*
G37*
%LPD*%
%LPC*%
G36*
X682033Y236063D02*
X682033Y236063D01*
X680368Y236752D01*
X678870Y237753D01*
X677597Y239026D01*
X676596Y240524D01*
X675907Y242189D01*
X675555Y243955D01*
X675555Y252477D01*
X683177Y252477D01*
X683177Y235835D01*
X682033Y236063D01*
G37*
%LPD*%
%LPC*%
G36*
X439627Y523323D02*
X439627Y523323D01*
X439627Y532572D01*
X439628Y532573D01*
X448877Y532573D01*
X448877Y523323D01*
X439627Y523323D01*
G37*
%LPD*%
%LPC*%
G36*
X439628Y511027D02*
X439628Y511027D01*
X439627Y511028D01*
X439627Y520277D01*
X448877Y520277D01*
X448877Y511027D01*
X439628Y511027D01*
G37*
%LPD*%
%LPC*%
G36*
X860523Y151223D02*
X860523Y151223D01*
X860523Y160518D01*
X861558Y160354D01*
X863193Y159822D01*
X864725Y159042D01*
X866116Y158031D01*
X867331Y156816D01*
X868342Y155425D01*
X869122Y153893D01*
X869654Y152258D01*
X869818Y151223D01*
X860523Y151223D01*
G37*
%LPD*%
%LPC*%
G36*
X810523Y151223D02*
X810523Y151223D01*
X810523Y160518D01*
X811558Y160354D01*
X813193Y159822D01*
X814725Y159042D01*
X816116Y158031D01*
X817331Y156816D01*
X818342Y155425D01*
X819122Y153893D01*
X819654Y152258D01*
X819818Y151223D01*
X810523Y151223D01*
G37*
%LPD*%
%LPC*%
G36*
X672723Y151223D02*
X672723Y151223D01*
X672723Y160518D01*
X673758Y160354D01*
X675393Y159822D01*
X676925Y159042D01*
X678316Y158031D01*
X679531Y156816D01*
X680542Y155425D01*
X681322Y153893D01*
X681854Y152258D01*
X682018Y151223D01*
X672723Y151223D01*
G37*
%LPD*%
%LPC*%
G36*
X798182Y151223D02*
X798182Y151223D01*
X798346Y152258D01*
X798878Y153893D01*
X799658Y155425D01*
X800669Y156816D01*
X801884Y158031D01*
X803275Y159042D01*
X804807Y159822D01*
X806442Y160354D01*
X807477Y160518D01*
X807477Y151223D01*
X798182Y151223D01*
G37*
%LPD*%
%LPC*%
G36*
X660382Y151223D02*
X660382Y151223D01*
X660546Y152258D01*
X661078Y153893D01*
X661858Y155425D01*
X662869Y156816D01*
X664084Y158031D01*
X665475Y159042D01*
X667007Y159822D01*
X668642Y160354D01*
X669677Y160518D01*
X669677Y151223D01*
X660382Y151223D01*
G37*
%LPD*%
%LPC*%
G36*
X848182Y151223D02*
X848182Y151223D01*
X848346Y152258D01*
X848878Y153893D01*
X849658Y155425D01*
X850669Y156816D01*
X851884Y158031D01*
X853275Y159042D01*
X854807Y159822D01*
X856442Y160354D01*
X857477Y160518D01*
X857477Y151223D01*
X848182Y151223D01*
G37*
%LPD*%
%LPC*%
G36*
X810523Y148177D02*
X810523Y148177D01*
X819818Y148177D01*
X819654Y147142D01*
X819122Y145507D01*
X818342Y143975D01*
X817331Y142584D01*
X816116Y141369D01*
X814725Y140358D01*
X813193Y139578D01*
X811558Y139046D01*
X810523Y138882D01*
X810523Y148177D01*
G37*
%LPD*%
%LPC*%
G36*
X672723Y148177D02*
X672723Y148177D01*
X682018Y148177D01*
X681854Y147142D01*
X681322Y145507D01*
X680542Y143975D01*
X679531Y142584D01*
X678316Y141369D01*
X676925Y140358D01*
X675393Y139578D01*
X673758Y139046D01*
X672723Y138882D01*
X672723Y148177D01*
G37*
%LPD*%
%LPC*%
G36*
X860523Y148177D02*
X860523Y148177D01*
X869818Y148177D01*
X869654Y147142D01*
X869122Y145507D01*
X868342Y143975D01*
X867331Y142584D01*
X866116Y141369D01*
X864725Y140358D01*
X863193Y139578D01*
X861558Y139046D01*
X860523Y138882D01*
X860523Y148177D01*
G37*
%LPD*%
%LPC*%
G36*
X856442Y139046D02*
X856442Y139046D01*
X854807Y139578D01*
X853275Y140358D01*
X851884Y141369D01*
X850669Y142584D01*
X849658Y143975D01*
X848878Y145507D01*
X848346Y147142D01*
X848182Y148177D01*
X857477Y148177D01*
X857477Y138882D01*
X856442Y139046D01*
G37*
%LPD*%
%LPC*%
G36*
X806442Y139046D02*
X806442Y139046D01*
X804807Y139578D01*
X803275Y140358D01*
X801884Y141369D01*
X800669Y142584D01*
X799658Y143975D01*
X798878Y145507D01*
X798346Y147142D01*
X798182Y148177D01*
X807477Y148177D01*
X807477Y138882D01*
X806442Y139046D01*
G37*
%LPD*%
%LPC*%
G36*
X668642Y139046D02*
X668642Y139046D01*
X667007Y139578D01*
X665475Y140358D01*
X664084Y141369D01*
X662869Y142584D01*
X661858Y143975D01*
X661078Y145507D01*
X660546Y147142D01*
X660382Y148177D01*
X669677Y148177D01*
X669677Y138882D01*
X668642Y139046D01*
G37*
%LPD*%
%LPC*%
G36*
X299823Y707643D02*
X299823Y707643D01*
X299823Y714757D01*
X301877Y714757D01*
X306937Y709697D01*
X306937Y707643D01*
X299823Y707643D01*
G37*
%LPD*%
%LPC*%
G36*
X604623Y636523D02*
X604623Y636523D01*
X604623Y643637D01*
X606677Y643637D01*
X611737Y638577D01*
X611737Y636523D01*
X604623Y636523D01*
G37*
%LPD*%
%LPC*%
G36*
X85823Y156623D02*
X85823Y156623D01*
X85823Y163737D01*
X87877Y163737D01*
X92937Y158677D01*
X92937Y156623D01*
X85823Y156623D01*
G37*
%LPD*%
%LPC*%
G36*
X85823Y207743D02*
X85823Y207743D01*
X85823Y214857D01*
X87877Y214857D01*
X92937Y209797D01*
X92937Y207743D01*
X85823Y207743D01*
G37*
%LPD*%
%LPC*%
G36*
X850223Y477623D02*
X850223Y477623D01*
X850223Y484737D01*
X852277Y484737D01*
X857337Y479677D01*
X857337Y477623D01*
X850223Y477623D01*
G37*
%LPD*%
%LPC*%
G36*
X289663Y707643D02*
X289663Y707643D01*
X289663Y709697D01*
X294723Y714757D01*
X296777Y714757D01*
X296777Y707643D01*
X289663Y707643D01*
G37*
%LPD*%
%LPC*%
G36*
X299823Y697483D02*
X299823Y697483D01*
X299823Y704597D01*
X306937Y704597D01*
X306937Y702543D01*
X301877Y697483D01*
X299823Y697483D01*
G37*
%LPD*%
%LPC*%
G36*
X594463Y636523D02*
X594463Y636523D01*
X594463Y638577D01*
X599523Y643637D01*
X601577Y643637D01*
X601577Y636523D01*
X594463Y636523D01*
G37*
%LPD*%
%LPC*%
G36*
X850223Y576363D02*
X850223Y576363D01*
X850223Y583477D01*
X857337Y583477D01*
X857337Y581423D01*
X852277Y576363D01*
X850223Y576363D01*
G37*
%LPD*%
%LPC*%
G36*
X840063Y477623D02*
X840063Y477623D01*
X840063Y479677D01*
X845123Y484737D01*
X847177Y484737D01*
X847177Y477623D01*
X840063Y477623D01*
G37*
%LPD*%
%LPC*%
G36*
X75663Y207743D02*
X75663Y207743D01*
X75663Y209797D01*
X80723Y214857D01*
X82777Y214857D01*
X82777Y207743D01*
X75663Y207743D01*
G37*
%LPD*%
%LPC*%
G36*
X85823Y197583D02*
X85823Y197583D01*
X85823Y204697D01*
X92937Y204697D01*
X92937Y202643D01*
X87877Y197583D01*
X85823Y197583D01*
G37*
%LPD*%
%LPC*%
G36*
X75663Y156623D02*
X75663Y156623D01*
X75663Y158677D01*
X80723Y163737D01*
X82777Y163737D01*
X82777Y156623D01*
X75663Y156623D01*
G37*
%LPD*%
%LPC*%
G36*
X294723Y697483D02*
X294723Y697483D01*
X289663Y702543D01*
X289663Y704597D01*
X296777Y704597D01*
X296777Y697483D01*
X294723Y697483D01*
G37*
%LPD*%
%LPC*%
G36*
X80723Y197583D02*
X80723Y197583D01*
X75663Y202643D01*
X75663Y204697D01*
X82777Y204697D01*
X82777Y197583D01*
X80723Y197583D01*
G37*
%LPD*%
%LPC*%
G36*
X845123Y576363D02*
X845123Y576363D01*
X840063Y581423D01*
X840063Y583477D01*
X847177Y583477D01*
X847177Y576363D01*
X845123Y576363D01*
G37*
%LPD*%
%LPC*%
G36*
X299823Y621603D02*
X299823Y621603D01*
X299823Y628583D01*
X300819Y628385D01*
X302391Y627734D01*
X303806Y626789D01*
X305009Y625586D01*
X305954Y624171D01*
X306605Y622599D01*
X306803Y621603D01*
X299823Y621603D01*
G37*
%LPD*%
%LPC*%
G36*
X299823Y618557D02*
X299823Y618557D01*
X306803Y618557D01*
X306605Y617561D01*
X305954Y615989D01*
X305009Y614574D01*
X303806Y613371D01*
X302391Y612426D01*
X300819Y611775D01*
X299823Y611577D01*
X299823Y618557D01*
G37*
%LPD*%
%LPC*%
G36*
X289797Y621603D02*
X289797Y621603D01*
X289995Y622599D01*
X290646Y624171D01*
X291591Y625586D01*
X292794Y626789D01*
X294209Y627734D01*
X295781Y628385D01*
X296777Y628583D01*
X296777Y621603D01*
X289797Y621603D01*
G37*
%LPD*%
%LPC*%
G36*
X295781Y611775D02*
X295781Y611775D01*
X294209Y612426D01*
X292794Y613371D01*
X291591Y614574D01*
X290646Y615989D01*
X289995Y617561D01*
X289797Y618557D01*
X296777Y618557D01*
X296777Y611577D01*
X295781Y611775D01*
G37*
%LPD*%
%LPC*%
G36*
X298299Y706119D02*
X298299Y706119D01*
X298299Y706121D01*
X298301Y706121D01*
X298301Y706119D01*
X298299Y706119D01*
G37*
%LPD*%
%LPC*%
G36*
X84299Y206219D02*
X84299Y206219D01*
X84299Y206221D01*
X84301Y206221D01*
X84301Y206219D01*
X84299Y206219D01*
G37*
%LPD*%
%LPC*%
G36*
X930299Y438399D02*
X930299Y438399D01*
X930299Y438401D01*
X930301Y438401D01*
X930301Y438399D01*
X930299Y438399D01*
G37*
%LPD*%
%LPC*%
G36*
X298299Y620079D02*
X298299Y620079D01*
X298299Y620081D01*
X298301Y620081D01*
X298301Y620079D01*
X298299Y620079D01*
G37*
%LPD*%
%LPC*%
G36*
X930299Y351399D02*
X930299Y351399D01*
X930299Y351401D01*
X930301Y351401D01*
X930301Y351399D01*
X930299Y351399D01*
G37*
%LPD*%
%LPC*%
G36*
X858999Y149699D02*
X858999Y149699D01*
X858999Y149701D01*
X859001Y149701D01*
X859001Y149699D01*
X858999Y149699D01*
G37*
%LPD*%
%LPC*%
G36*
X808999Y149699D02*
X808999Y149699D01*
X808999Y149701D01*
X809001Y149701D01*
X809001Y149699D01*
X808999Y149699D01*
G37*
%LPD*%
%LPC*%
G36*
X671199Y149699D02*
X671199Y149699D01*
X671199Y149701D01*
X671201Y149701D01*
X671201Y149699D01*
X671199Y149699D01*
G37*
%LPD*%
%LPC*%
G36*
X930299Y582699D02*
X930299Y582699D01*
X930299Y582701D01*
X930301Y582701D01*
X930301Y582699D01*
X930299Y582699D01*
G37*
%LPD*%
D10*
X940841Y438400D02*
X919759Y438400D01*
X919759Y488400D02*
X940841Y488400D01*
X940841Y582700D02*
X919759Y582700D01*
X919759Y632700D02*
X940841Y632700D01*
X940841Y301400D02*
X919759Y301400D01*
X919759Y351400D02*
X940841Y351400D01*
D11*
X254000Y379100D03*
D12*
X254000Y429900D03*
D13*
X298300Y706120D03*
D14*
X298300Y741680D03*
D13*
X298300Y584520D03*
D14*
X298300Y620080D03*
D15*
X603100Y609600D03*
X603100Y635000D03*
D13*
X848700Y476100D03*
X848700Y450700D03*
X848700Y610400D03*
X848700Y585000D03*
D15*
X84300Y129700D03*
X84300Y155100D03*
D13*
X84300Y206220D03*
D14*
X84300Y241780D03*
D16*
X511700Y357100D03*
X410100Y357100D03*
X239400Y173200D03*
X239400Y274800D03*
X223200Y712000D03*
X121600Y712000D03*
X861800Y702000D03*
X760200Y702000D03*
D17*
X735500Y263144D02*
X735500Y244856D01*
X710100Y244856D02*
X710100Y263144D01*
X684700Y263144D02*
X684700Y244856D01*
D18*
X304800Y518800D03*
X279400Y518800D03*
D19*
X409900Y152400D03*
D20*
X409900Y177800D03*
X409900Y203200D03*
D21*
X642000Y714248D02*
X642000Y733552D01*
X667400Y733552D02*
X667400Y714248D01*
X692800Y714248D02*
X692800Y733552D01*
X446100Y733552D02*
X446100Y714248D01*
X471500Y714248D02*
X471500Y733552D01*
X496900Y733552D02*
X496900Y714248D01*
D19*
X450400Y521800D03*
D20*
X475800Y521800D03*
X501200Y521800D03*
D22*
X571200Y149700D03*
X621200Y149700D03*
X671200Y149700D03*
X759000Y149700D03*
X809000Y149700D03*
X859000Y149700D03*
D13*
X358300Y455300D03*
X358300Y353700D03*
D15*
X178600Y173200D03*
X178600Y274800D03*
D23*
X145900Y625800D03*
D24*
X196700Y625800D03*
X196700Y575000D03*
X145900Y575000D03*
D17*
X90744Y575000D02*
X72456Y575000D01*
X72456Y600400D02*
X90744Y600400D01*
X90744Y625800D02*
X72456Y625800D01*
D10*
X161300Y79241D02*
X161300Y58159D01*
X211300Y58159D02*
X211300Y79241D01*
X261300Y79241D02*
X261300Y58159D01*
D25*
X280080Y620080D02*
X298300Y620080D01*
X280080Y620080D02*
X260000Y600000D01*
D26*
X109600Y600400D02*
X81600Y600400D01*
X190240Y595240D02*
X195000Y600000D01*
X260000Y600000D01*
X114760Y595240D02*
X109600Y600400D01*
X114760Y595240D02*
X190240Y595240D01*
X104200Y625800D02*
X81600Y625800D01*
X195800Y625800D02*
X196700Y625800D01*
X122688Y607312D02*
X104200Y625800D01*
X122688Y607312D02*
X177312Y607312D01*
X195800Y625800D01*
D27*
X135900Y565000D02*
X91600Y565000D01*
X81600Y575000D01*
X135900Y565000D02*
X145900Y575000D01*
X254000Y379100D02*
X279400Y353700D01*
X358300Y353700D01*
X254000Y379100D02*
X60900Y379100D01*
X40000Y400000D02*
X40000Y650000D01*
X60000Y670000D01*
X121600Y701600D02*
X121600Y712000D01*
X40000Y400000D02*
X60900Y379100D01*
X60000Y670000D02*
X90000Y670000D01*
X121600Y701600D01*
X121600Y650100D02*
X145900Y625800D01*
X121600Y650100D02*
X121600Y701600D01*
X298300Y741680D02*
X299980Y740000D01*
X430000Y740000D02*
X446100Y723900D01*
X430000Y740000D02*
X299980Y740000D01*
X298300Y741680D02*
X296620Y740000D01*
X130000Y740000D02*
X120000Y730000D01*
X120000Y713600D01*
X121600Y712000D01*
X130000Y740000D02*
X296620Y740000D01*
X358300Y254800D02*
X409900Y203200D01*
X358300Y254800D02*
X358300Y353700D01*
X361700Y357100D02*
X410100Y357100D01*
X361700Y357100D02*
X358300Y353700D01*
X280000Y575000D02*
X196700Y575000D01*
X280000Y575000D02*
X288780Y575000D01*
X298300Y584520D01*
X280000Y519400D02*
X279400Y518800D01*
X280000Y519400D02*
X280000Y575000D01*
X475800Y544200D02*
X475800Y521800D01*
X435480Y584520D02*
X298300Y584520D01*
X435480Y584520D02*
X475800Y544200D01*
X254000Y493400D02*
X254000Y429900D01*
X254000Y493400D02*
X279400Y518800D01*
X529300Y450700D02*
X848700Y450700D01*
X501200Y478800D02*
X501200Y521800D01*
X501200Y478800D02*
X529300Y450700D01*
X878600Y301400D02*
X930300Y301400D01*
X848700Y331300D02*
X848700Y450700D01*
X848700Y331300D02*
X878600Y301400D01*
X265200Y670000D02*
X223200Y712000D01*
X496900Y723900D02*
X496900Y686900D01*
X480000Y670000D02*
X265200Y670000D01*
X480000Y670000D02*
X496900Y686900D01*
X496900Y723900D02*
X642000Y723900D01*
X603500Y610000D02*
X603100Y609600D01*
X603500Y610000D02*
X630000Y610000D01*
X642000Y622000D01*
X642000Y680000D01*
X642000Y723900D01*
X738200Y680000D02*
X760200Y702000D01*
X738200Y680000D02*
X642000Y680000D01*
X908700Y510000D02*
X930300Y488400D01*
X760200Y569800D02*
X760200Y702000D01*
X820000Y510000D02*
X908700Y510000D01*
X820000Y510000D02*
X760200Y569800D01*
X692800Y723900D02*
X708900Y740000D01*
X861800Y723200D02*
X861800Y702000D01*
X845000Y740000D02*
X708900Y740000D01*
X845000Y740000D02*
X861800Y723200D01*
X871000Y632700D02*
X848700Y610400D01*
X871000Y632700D02*
X930300Y632700D01*
X930300Y659700D01*
X888000Y702000D02*
X861800Y702000D01*
X888000Y702000D02*
X930300Y659700D01*
X759000Y149700D02*
X759000Y119000D01*
X750000Y110000D01*
X640000Y110000D01*
X621200Y128800D01*
X621200Y149700D01*
X571200Y149700D02*
X412600Y149700D01*
X409900Y152400D01*
X247600Y152400D01*
X239400Y160600D02*
X239400Y173200D01*
X239400Y160600D02*
X247600Y152400D01*
X239400Y173200D02*
X178600Y173200D01*
X124300Y129700D02*
X84300Y129700D01*
X167800Y173200D02*
X178600Y173200D01*
X167800Y173200D02*
X124300Y129700D01*
X450000Y190000D02*
X450000Y321200D01*
X450000Y190000D02*
X437800Y177800D01*
X409900Y177800D01*
X710100Y254000D02*
X710100Y289900D01*
X678800Y321200D02*
X510000Y321200D01*
X450000Y321200D01*
X678800Y321200D02*
X710100Y289900D01*
X239400Y274800D02*
X178600Y274800D01*
X90000Y247480D02*
X84300Y241780D01*
X90000Y247480D02*
X90000Y260000D01*
X104800Y274800D01*
X178600Y274800D01*
X276300Y53700D02*
X833700Y53700D01*
X276300Y53700D02*
X261300Y68700D01*
X730000Y210000D02*
X770000Y210000D01*
X730000Y210000D02*
X710100Y229900D01*
X710100Y254000D01*
X890000Y110000D02*
X833700Y53700D01*
X890000Y110000D02*
X890000Y230000D01*
X790000Y230000D01*
X770000Y210000D01*
X295200Y274800D02*
X239400Y274800D01*
X320000Y250000D02*
X320000Y200000D01*
X342200Y177800D01*
X409900Y177800D01*
X320000Y250000D02*
X295200Y274800D01*
X511700Y322900D02*
X511700Y357100D01*
X511700Y322900D02*
X510000Y321200D01*
X358300Y455300D02*
X358300Y491700D01*
X330000Y520000D01*
X306000Y520000D01*
X304800Y518800D01*
X735500Y254000D02*
X764000Y254000D01*
X780000Y270000D02*
X900000Y270000D01*
X920000Y250000D01*
X920000Y100000D01*
X764000Y254000D02*
X780000Y270000D01*
X920000Y100000D02*
X850000Y30000D01*
X170000Y30000D01*
X161300Y38700D01*
X161300Y68700D01*
M02*
