G04 EAGLE Gerber RS-274X export*
G75*
%MOMM*%
%FSLAX34Y34*%
%LPD*%
%INSoldermask Bottom*%
%IPPOS*%
%AMOC8*
5,1,8,0,0,1.08239X$1,22.5*%
G01*
%ADD10C,1.727200*%
%ADD11P,1.869504X8X22.500000*%
%ADD12P,1.951982X8X292.500000*%
%ADD13C,1.803400*%
%ADD14P,1.649562X8X292.500000*%
%ADD15C,2.743200*%
%ADD16P,2.969212X8X112.500000*%
%ADD17C,1.879600*%
%ADD18C,1.727200*%
%ADD19P,1.649562X8X202.500000*%
%ADD20P,1.649562X8X112.500000*%
%ADD21C,2.387600*%
%ADD22C,1.993900*%
%ADD23R,2.063200X2.063200*%
%ADD24C,2.063200*%
%ADD25C,1.625600*%


D10*
X172100Y782300D03*
D11*
X222900Y782300D03*
X222900Y731500D03*
X172100Y731500D03*
D12*
X309900Y809720D03*
D13*
X309900Y845280D03*
D12*
X309900Y694020D03*
D13*
X309900Y729580D03*
D14*
X549600Y780700D03*
X549600Y755300D03*
D15*
X259800Y510200D03*
D16*
X259800Y561000D03*
D14*
X759600Y671500D03*
X759600Y646100D03*
X759600Y802300D03*
X759600Y776900D03*
D17*
X382600Y502800D03*
X484200Y502800D03*
X268800Y299700D03*
X268800Y401300D03*
X213300Y878800D03*
X111700Y878800D03*
X846300Y878800D03*
X744700Y878800D03*
D18*
X442500Y848620D02*
X442500Y833380D01*
X467900Y833380D02*
X467900Y848620D01*
X493300Y848620D02*
X493300Y833380D01*
X613900Y833380D02*
X613900Y848620D01*
X639300Y848620D02*
X639300Y833380D01*
X664700Y833380D02*
X664700Y848620D01*
D19*
X324000Y634200D03*
X298600Y634200D03*
D14*
X369600Y632900D03*
X369600Y531300D03*
D20*
X230400Y300100D03*
X230400Y401700D03*
D21*
X567700Y335600D03*
X617700Y335600D03*
X667700Y335600D03*
X744700Y335900D03*
X794700Y335900D03*
X844700Y335900D03*
D22*
X851154Y626300D02*
X833247Y626300D01*
X833247Y676300D02*
X851154Y676300D01*
X846154Y485500D02*
X828247Y485500D01*
X828247Y535500D02*
X846154Y535500D01*
X852754Y759300D02*
X834847Y759300D01*
X834847Y809300D02*
X852754Y809300D01*
D23*
X420000Y314600D03*
D24*
X420000Y340000D03*
X420000Y365400D03*
D23*
X524600Y610000D03*
D24*
X550000Y610000D03*
X575400Y610000D03*
D25*
X765400Y437112D02*
X765400Y422888D01*
X740000Y422888D02*
X740000Y437112D01*
X714600Y437112D02*
X714600Y422888D01*
X107112Y734600D02*
X92888Y734600D01*
X92888Y760000D02*
X107112Y760000D01*
X107112Y785400D02*
X92888Y785400D01*
D14*
X130000Y292700D03*
X130000Y267300D03*
D12*
X130000Y362220D03*
D13*
X130000Y397780D03*
D22*
X200000Y236054D02*
X200000Y218147D01*
X250000Y218147D02*
X250000Y236054D01*
X300000Y236054D02*
X300000Y218147D01*
M02*
