G04 EAGLE Gerber RS-274X export*
G75*
%MOMM*%
%FSLAX34Y34*%
%LPD*%
%INSoldermask Bottom*%
%IPPOS*%
%AMOC8*
5,1,8,0,0,1.08239X$1,22.5*%
G01*
%ADD10C,2.311400*%
%ADD11C,2.743200*%
%ADD12P,2.969212X8X112.500000*%
%ADD13P,2.089446X8X292.500000*%
%ADD14C,1.930400*%
%ADD15P,2.089446X8X112.500000*%
%ADD16C,2.235200*%
%ADD17C,2.032000*%
%ADD18P,2.089446X8X202.500000*%
%ADD19R,2.357600X2.357600*%
%ADD20C,2.357600*%
%ADD21C,2.133600*%
%ADD22C,2.387600*%
%ADD23C,2.133600*%
%ADD24P,2.309387X8X22.500000*%
%ADD25C,3.203200*%


D10*
X940841Y438400D02*
X919759Y438400D01*
X919759Y488400D02*
X940841Y488400D01*
X940841Y582700D02*
X919759Y582700D01*
X919759Y632700D02*
X940841Y632700D01*
X940841Y301400D02*
X919759Y301400D01*
X919759Y351400D02*
X940841Y351400D01*
D11*
X254000Y379100D03*
D12*
X254000Y429900D03*
D13*
X298300Y706120D03*
D14*
X298300Y741680D03*
D13*
X298300Y584520D03*
D14*
X298300Y620080D03*
D15*
X603100Y609600D03*
X603100Y635000D03*
D13*
X848700Y476100D03*
X848700Y450700D03*
X848700Y610400D03*
X848700Y585000D03*
D15*
X84300Y129700D03*
X84300Y155100D03*
D13*
X84300Y206220D03*
D14*
X84300Y241780D03*
D16*
X511700Y357100D03*
X410100Y357100D03*
X239400Y173200D03*
X239400Y274800D03*
X223200Y712000D03*
X121600Y712000D03*
X861800Y702000D03*
X760200Y702000D03*
D17*
X735500Y263144D02*
X735500Y244856D01*
X710100Y244856D02*
X710100Y263144D01*
X684700Y263144D02*
X684700Y244856D01*
D18*
X304800Y518800D03*
X279400Y518800D03*
D19*
X409900Y152400D03*
D20*
X409900Y177800D03*
X409900Y203200D03*
D21*
X642000Y714248D02*
X642000Y733552D01*
X667400Y733552D02*
X667400Y714248D01*
X692800Y714248D02*
X692800Y733552D01*
X446100Y733552D02*
X446100Y714248D01*
X471500Y714248D02*
X471500Y733552D01*
X496900Y733552D02*
X496900Y714248D01*
D19*
X450400Y521800D03*
D20*
X475800Y521800D03*
X501200Y521800D03*
D22*
X571200Y149700D03*
X621200Y149700D03*
X671200Y149700D03*
X759000Y149700D03*
X809000Y149700D03*
X859000Y149700D03*
D13*
X358300Y455300D03*
X358300Y353700D03*
D15*
X178600Y173200D03*
X178600Y274800D03*
D23*
X145900Y625800D03*
D24*
X196700Y625800D03*
X196700Y575000D03*
X145900Y575000D03*
D17*
X90744Y575000D02*
X72456Y575000D01*
X72456Y600400D02*
X90744Y600400D01*
X90744Y625800D02*
X72456Y625800D01*
D10*
X161300Y79241D02*
X161300Y58159D01*
X211300Y58159D02*
X211300Y79241D01*
X261300Y79241D02*
X261300Y58159D01*
D25*
X50000Y750000D03*
X50000Y50000D03*
X950000Y750000D03*
X950000Y50000D03*
M02*
